<svg width="24" height="25" viewBox="0 0 24 25" fill="none" xmlns="http://www.w3.org/2000/svg">
<path d="M8.08067 2.42271C6.23051 2.43916 4.38936 2.70265 2.70261 3.11772C3.17576 3.83322 3.9762 4.38101 4.90095 4.75202C6.00954 5.19677 7.27845 5.37701 8.22715 5.32854C9.20337 5.27862 10.4661 4.8821 11.4505 4.34379C11.9427 4.07463 12.3665 3.7698 12.6529 3.4766C12.8048 3.32112 12.9115 3.17257 12.9806 3.03991C11.5333 2.62844 9.99481 2.43687 8.45079 2.42271C8.32742 2.4216 8.20404 2.4216 8.08067 2.42271ZM13.3092 4.01069C13.2917 4.02926 13.2743 4.04787 13.2564 4.06619C12.8867 4.44471 12.4018 4.78526 11.8554 5.08408C10.7625 5.68174 9.42856 6.11196 8.27018 6.17116C7.18142 6.22685 5.82528 6.03208 4.58675 5.53516C3.73859 5.19485 2.93726 4.70777 2.3479 4.04112C1.58314 10.1964 0.904529 17.0546 1.87329 22.6723C2.79195 22.9612 3.79479 23.1797 4.82679 23.3262V20.328H7.82679V17.328H12.981C12.9799 17.1867 12.9882 17.0329 13.0038 16.8606C13.0488 16.3663 13.1546 15.7348 13.3009 15.0322C13.5544 13.815 13.9296 12.3923 14.3297 11.1813C14.0977 8.87819 13.761 6.45274 13.3092 4.01069ZM20.4661 4.03835C20.4235 4.03844 20.3757 4.04337 20.3316 4.04477L17.6621 7.38602C18.0227 7.50185 18.3464 7.73229 18.5827 8.04471L21.1734 4.94885C21.2156 4.85229 21.2172 4.58262 21.0715 4.37262C20.9574 4.20832 20.7918 4.07046 20.5066 4.04018C20.4939 4.0389 20.4804 4.03829 20.4661 4.03835ZM17.208 8.15126C17.1282 8.24786 17.0609 8.35408 17.0075 8.46743C16.827 8.85462 16.7956 9.26758 16.8286 9.62102L16.8297 9.63152L16.994 10.7756C16.9086 10.7836 16.8233 10.7928 16.7381 10.8031C16.2155 10.867 15.6416 10.9852 15.2472 11.1125C14.8196 12.3458 14.3977 13.904 14.1269 15.2043C13.9847 15.8868 13.884 16.4983 13.8441 16.937C13.8315 17.0751 13.8353 17.1553 13.8346 17.2525C13.9442 17.196 14.0712 17.1244 14.2249 17.0241C14.6783 16.728 15.2796 16.2638 15.9185 15.732C17.1154 14.7355 18.4359 13.5102 19.2933 12.6469C19.1535 12.2895 18.9083 11.8855 18.6394 11.5446C18.3261 11.1476 17.9601 10.8347 17.8645 10.7755C17.8618 10.7758 17.8522 10.7742 17.8461 10.7736L17.6688 9.53969C17.6478 9.30954 17.6799 9.02201 17.7723 8.82391C17.818 8.72585 17.8666 8.64921 17.9345 8.59183C17.7541 8.33955 17.4786 8.17493 17.208 8.15126ZM17.6705 15.1717V17.328H22.8268V15.1717H17.6705ZM8.67054 18.1717V20.328H13.8268V18.1717H8.67054ZM14.6705 18.1717V20.328H19.8268V18.1717H14.6705ZM20.6705 18.1717V20.328H22.8268V18.1717H20.6705ZM5.67054 21.1717V23.328H10.8268V21.1717H5.67054ZM11.6705 21.1717V23.328H16.8268V21.1717H11.6705ZM17.6705 21.1717V23.328H22.8268V21.1717H17.6705Z" fill="#21395D"/>
</svg>
