<svg width="63" height="63" viewBox="0 0 63 63" fill="none" xmlns="http://www.w3.org/2000/svg">
<g clip-path="url(#clip0_753_1745)">
<path d="M12.6408 51.5779H12.6335C12.7384 51.6755 12.8469 51.7732 12.9572 51.8654C12.8523 51.7714 12.7475 51.6755 12.6426 51.5779H12.6408ZM17.5304 51.9432C17.9391 52.2234 18.3514 52.4947 18.7745 52.7406C18.355 52.4911 17.9391 52.2234 17.5304 51.9432Z" fill="black"/>
<path d="M32.4308 0H31.7075V31.2654H63C62.8915 14.2783 49.3239 0.48643 32.4308 0ZM49.7326 26.0846C49.3094 26.5132 48.7181 26.7772 48.0671 26.7772C46.7634 26.7772 45.7055 25.7193 45.7055 24.4155C45.7055 23.7628 45.9695 23.1751 46.3981 22.7465C46.8266 22.3234 47.418 22.0575 48.0671 22.0575C48.7163 22.0575 49.3076 22.3215 49.7326 22.7465C50.1611 23.1751 50.4251 23.7609 50.4251 24.4155C50.4251 25.0701 50.1611 25.656 49.7326 26.0846ZM48.6476 19.6634C48.6476 19.0106 48.9116 18.4229 49.3402 17.9943C49.7687 17.5712 50.36 17.3053 51.0092 17.3053C51.6584 17.3053 52.2497 17.5694 52.6783 17.9943C53.1032 18.4229 53.3672 19.0088 53.3672 19.6634C53.3672 20.318 53.1032 20.9038 52.6783 21.3324C52.2497 21.761 51.6602 22.025 51.0092 22.025C49.7054 22.025 48.6476 20.9671 48.6476 19.6634ZM53.9495 26.7772C52.6457 26.7772 51.5879 25.7193 51.5879 24.4155C51.5879 23.7628 51.8519 23.1751 52.2804 22.7465C52.709 22.3234 53.2985 22.0575 53.9495 22.0575C54.6005 22.0575 55.19 22.3215 55.6186 22.7465C56.0435 23.1751 56.3075 23.7609 56.3075 24.4155C56.3075 25.0701 56.0435 25.656 55.6186 26.0846C55.19 26.5132 54.6005 26.7772 53.9495 26.7772Z" fill="black"/>
<path opacity="0.46" d="M28.0745 58.8272C27.5953 58.7694 27.1288 58.6989 26.6586 58.6175C27.1288 58.7025 27.6044 58.7766 28.0781 58.8345C28.0781 58.8309 28.0745 58.8309 28.0745 58.8272ZM26.1487 55.6772C24.5339 55.3155 22.9516 54.7984 21.4272 54.1221C22.9281 54.7984 24.5122 55.321 26.1523 55.6899C26.1523 55.6862 26.1487 55.6826 26.1487 55.679V55.6772Z" fill="black"/>
<path d="M31.288 29.2581C31.1831 28.6939 31.0348 28.137 30.8449 27.6017C30.7166 27.2238 30.5683 26.8621 30.4019 26.5095C29.9932 25.6271 29.4833 24.8061 28.8685 24.0593C28.6117 23.741 28.3387 23.4246 28.0439 23.1371C27.317 22.4011 26.496 21.7682 25.5937 21.2546C25.2085 21.025 24.8034 20.8224 24.3912 20.6434C23.3369 20.1805 22.1941 19.8731 21.0024 19.7375C20.5702 19.6905 20.1308 19.6633 19.6842 19.6633C19.5901 19.6633 19.4979 19.6633 19.4039 19.6706C17.8795 19.7013 16.4238 20.0286 15.0947 20.5892C14.3949 20.8894 13.7331 21.2474 13.111 21.6597C10.1075 23.6741 8.08218 27.0321 7.88327 30.8711V30.8784C7.87603 31.0104 7.87061 31.1351 7.87061 31.2671C7.86338 31.3449 7.86338 31.4118 7.86338 31.4805H7.87061C7.87061 31.5547 7.87061 31.6198 7.87422 31.6939H3.96289C3.98278 34.6577 4.48006 37.6341 5.46739 40.493C5.60663 40.8981 5.75491 41.3013 5.91404 41.7028C6.81999 43.9776 8.05325 46.1638 9.60476 48.2018C9.64816 48.2596 9.68613 48.3139 9.73315 48.3681C9.77655 48.426 9.82175 48.4803 9.86877 48.5363C10.5993 49.4694 11.3859 50.3446 12.2105 51.162C13.4745 51.1384 14.7078 50.9938 15.9012 50.7334H15.9048C16.3786 50.6321 16.8506 50.511 17.3045 50.3753C18.3894 50.0571 19.4364 49.6484 20.44 49.1493C20.8415 48.9504 21.2303 48.737 21.6154 48.511C22.5178 47.9812 23.3821 47.3826 24.1778 46.7262C24.5051 46.4532 24.8233 46.1747 25.1271 45.8854C25.8468 45.2091 26.5195 44.4731 27.1307 43.6955H27.1379C27.3839 43.3773 27.6244 43.0536 27.8504 42.7154L29.3007 40.2453C29.4761 39.8909 29.6388 39.5292 29.7871 39.1676C30.1488 38.3122 30.4453 37.4207 30.6786 36.5076H30.6822C30.7762 36.1423 30.8576 35.7607 30.9317 35.3792C31.165 34.1893 31.3404 32.9597 31.3404 31.6993C31.3404 31.6993 31.4109 29.9109 31.2862 29.2563L31.288 29.2581ZM21.0512 34.5293C18.2592 34.5293 15.9989 32.2653 15.9989 29.4733C15.9989 26.6813 18.2592 24.4173 21.0512 24.4173C23.8432 24.4173 26.1036 26.6849 26.1036 29.4733C26.1036 32.2617 23.8432 34.5293 21.0512 34.5293Z" fill="black"/>
<path d="M23.4091 12.3542H23.4073C22.105 12.3542 21.0493 13.41 21.0493 14.7123V14.7141C21.0493 16.0164 22.105 17.0721 23.4073 17.0721H23.4091C24.7114 17.0721 25.7671 16.0164 25.7671 14.7141V14.7123C25.7671 13.41 24.7114 12.3542 23.4091 12.3542Z" fill="black"/>
<path d="M56.8374 50.2C51.1395 57.9015 42.0076 62.9122 31.7094 62.9791C31.6389 62.9828 31.5683 62.9828 31.4978 62.9828C31.4273 62.9828 31.3568 62.9828 31.2862 62.9791C24.3587 62.9357 17.9573 60.6519 12.7784 56.8165C11.4348 55.8237 10.1781 54.7279 9.0099 53.5399C8.40412 52.9196 7.82185 52.2741 7.26852 51.6068C7.08045 51.3844 6.90143 51.1583 6.72241 50.9305C8.08948 51.2976 9.51803 51.5164 10.9864 51.5743H10.9972C16.1635 56.8508 23.346 60.1474 31.2862 60.2016C31.3568 60.2052 31.4273 60.2052 31.4978 60.2052C31.5683 60.2052 31.6389 60.2052 31.7094 60.2016C39.9697 60.1383 47.418 56.5742 52.6223 50.9178C54.0743 50.8274 55.4848 50.5815 56.8356 50.2H56.8374Z" fill="black"/>
<path d="M42.805 48.9866C39.5952 51.0679 35.7924 52.2849 31.7075 52.3247C31.637 52.3283 31.5682 52.3283 31.4977 52.3283C31.4272 52.3283 31.3585 52.3283 31.288 52.3247C27.4869 52.2849 23.9282 51.227 20.8668 49.4079C19.874 49.9215 18.8288 50.3536 17.7402 50.6882C21.5593 53.4295 26.2356 55.0642 31.288 55.1076C31.3585 55.1113 31.4272 55.1113 31.4977 55.1113C31.5682 55.1113 31.637 55.1113 31.7075 55.1076C37.06 55.0606 41.9912 53.2324 45.9279 50.1945C44.8465 49.8799 43.8049 49.4748 42.805 48.9884V48.9866Z" fill="black"/>
<path d="M39.051 46.6068C36.8377 47.7225 34.344 48.3608 31.7076 48.388H31.288C28.9083 48.3608 26.6516 47.84 24.6046 46.9214C23.8035 47.5941 22.9446 48.2089 22.0422 48.7568C24.7926 50.2613 27.9391 51.1293 31.288 51.1637C31.3586 51.1673 31.4273 51.1673 31.4978 51.1673C31.5719 51.1673 31.637 51.1673 31.7076 51.1637C35.3368 51.1239 38.7291 50.1094 41.6296 48.3626C40.7237 47.8491 39.8593 47.2578 39.051 46.605V46.6068Z" fill="black"/>
<path d="M36.0673 43.6196C34.7021 44.1368 33.2391 44.4243 31.7075 44.4514C31.637 44.4551 31.5719 44.4551 31.4978 44.4551C31.4272 44.4551 31.3585 44.4551 31.288 44.4514C29.9878 44.4279 28.7365 44.2182 27.5539 43.8402C26.9427 44.6305 26.279 45.3773 25.5503 46.0699C27.3278 46.7968 29.2645 47.2055 31.288 47.229C31.3585 47.2326 31.4272 47.2326 31.4978 47.2326C31.5719 47.2326 31.637 47.2326 31.7075 47.229C33.9914 47.2019 36.1487 46.6847 38.098 45.7896C37.3711 45.1169 36.6858 44.39 36.0673 43.6196Z" fill="black"/>
<path d="M33.8468 40.2037C33.1669 40.3863 32.4472 40.4948 31.7076 40.5111C31.6371 40.5147 31.572 40.5147 31.4979 40.5147C31.4273 40.5147 31.3586 40.5147 31.2881 40.5111C30.7547 40.5003 30.2375 40.437 29.733 40.3357C29.308 41.2109 28.8234 42.0518 28.2827 42.8438C29.2393 43.1205 30.2465 43.2724 31.2899 43.2868C31.3568 43.2941 31.4291 43.2941 31.4997 43.2941C31.5738 43.2941 31.6443 43.2941 31.7094 43.2868C32.9807 43.267 34.1958 43.0463 35.3351 42.6521C34.7835 41.871 34.288 41.0572 33.8486 40.2019L33.8468 40.2037Z" fill="black"/>
<path d="M32.4073 36.4932C32.1813 36.5329 31.9444 36.5601 31.7075 36.5673C31.637 36.5745 31.5719 36.5745 31.4977 36.5745C31.4272 36.5745 31.3585 36.5745 31.288 36.5673C31.2301 36.5637 31.1704 36.5637 31.109 36.5565C30.8757 37.4787 30.5791 38.381 30.2229 39.2526C30.5683 39.3105 30.9227 39.3466 31.288 39.3539C31.3585 39.3575 31.4272 39.3575 31.4977 39.3575C31.5719 39.3575 31.637 39.3575 31.7075 39.3539C32.2753 39.3376 32.8196 39.2653 33.3458 39.1369C32.9769 38.2852 32.6569 37.4064 32.4091 36.495L32.4073 36.4932Z" fill="black"/>
<path d="M32.1378 35.3684C31.9985 35.3938 31.8539 35.4064 31.7092 35.4155C31.6369 35.4191 31.57 35.4191 31.4976 35.4191C31.4506 35.4191 31.4036 35.4191 31.3584 35.4155C31.5917 34.2129 31.7092 32.967 31.7092 31.6922V31.269C31.7092 31.4083 31.7092 31.5529 31.7182 31.6922C31.7399 32.9508 31.8828 34.1786 32.1378 35.3684Z" fill="black"/>
<path d="M2.78388 31.7156V31.6921H0.00634766V31.7156C0.0226223 34.2907 0.351731 36.7915 0.948467 39.1875C1.10036 39.7824 1.26673 40.3737 1.44936 40.9614C1.5434 41.249 1.63562 41.5419 1.73688 41.8294C1.77666 41.947 1.81826 42.0627 1.85804 42.1748L4.39869 40.9922C3.37519 38.0826 2.80739 34.9597 2.78388 31.7156ZM4.84895 42.1983L2.32458 43.3773C2.34447 43.4316 2.36436 43.4822 2.38606 43.5328C2.5036 43.8131 2.61933 44.097 2.7441 44.3683C2.83271 44.5672 2.92312 44.7643 3.01715 44.9632C3.04428 45.0211 3.0714 45.0807 3.10576 45.1386C3.19075 45.3212 3.28478 45.5075 3.37881 45.6865C3.46018 45.8583 3.54698 46.021 3.63197 46.1802C3.83812 46.5762 4.06054 46.974 4.29019 47.3592C4.38422 47.5183 4.47644 47.6829 4.57409 47.8384C4.78385 48.1838 5.00627 48.5273 5.23231 48.8727C5.35346 49.0553 5.47824 49.2344 5.60663 49.4134C5.67715 49.5183 5.75491 49.6268 5.82905 49.7317C5.96828 49.9342 6.11656 50.1277 6.26123 50.323C6.27389 50.3392 6.28112 50.3537 6.29197 50.3664V50.37H6.29558C7.65723 50.7787 9.08759 51.0354 10.5595 51.1277C8.14366 48.549 6.19613 45.5274 4.85257 42.1965L4.84895 42.1983Z" fill="black"/>
<path d="M51.0055 50.9504C46.0652 55.9033 39.2498 58.9846 31.7092 59.0389C31.6387 59.0461 31.5682 59.0461 31.4976 59.0461C31.4271 59.0461 31.3566 59.0461 31.2861 59.0389C30.2011 59.0316 29.1306 58.9611 28.0763 58.8273C27.6008 58.7694 27.127 58.6989 26.6586 58.6157C26.4597 58.5814 26.2608 58.5416 26.0601 58.5018C25.599 58.4114 25.1379 58.3065 24.6822 58.189C24.5104 58.1456 24.335 58.0986 24.1632 58.0515C23.8305 57.9575 23.5032 57.8635 23.1795 57.7586C23.0186 57.708 22.8594 57.6573 22.6985 57.6031C22.3549 57.4892 22.015 57.3644 21.6786 57.2396C21.3224 57.1022 20.9716 56.9593 20.6208 56.8093C20.449 56.7351 20.2808 56.661 20.1126 56.5832C19.9517 56.5127 19.7926 56.4385 19.6316 56.3608C19.6153 56.3536 19.6009 56.3445 19.581 56.3373C19.4291 56.2668 19.2808 56.1926 19.1325 56.1185C18.9571 56.0281 18.7817 55.9395 18.6099 55.8454C18.4418 55.7586 18.2772 55.67 18.1181 55.5796C17.7854 55.3952 17.4581 55.2053 17.1308 55.001C16.9517 54.8925 16.7709 54.7785 16.5955 54.6646C16.3803 54.5272 16.1706 54.3879 15.959 54.2397C15.8306 54.1529 15.7004 54.0679 15.5756 53.9739C15.317 53.7948 15.0639 53.6068 14.8143 53.4151C14.6624 53.3012 14.5142 53.1854 14.3659 53.0643C14.2176 52.9467 14.0693 52.8256 13.9247 52.7044C13.7059 52.52 13.4871 52.3337 13.2719 52.1493C13.0603 51.9576 12.8505 51.7659 12.6426 51.5706C13.9048 51.52 15.138 51.3482 16.3333 51.0661C16.3333 51.0661 16.3345 51.0661 16.3369 51.0661C16.4653 51.171 16.5955 51.2686 16.7275 51.3627C16.9897 51.5652 17.2591 51.7533 17.5286 51.9359C17.9391 52.218 18.3532 52.4874 18.7745 52.7334C18.9155 52.8238 19.0548 52.9051 19.1994 52.9829C19.3405 53.0697 19.4852 53.1475 19.6298 53.2252C19.798 53.3192 19.9662 53.4097 20.1379 53.4946C20.3495 53.6031 20.5629 53.7135 20.7781 53.8147C20.9933 53.9196 21.2085 54.0209 21.4273 54.1149C22.9318 54.7912 24.5158 55.3138 26.1559 55.6809H26.1596C27.8123 56.0443 29.5266 56.2396 31.2879 56.2541C31.3584 56.2577 31.4289 56.2577 31.4994 56.2577C31.57 56.2577 31.6405 56.2577 31.711 56.2541C37.644 56.2071 43.0797 54.0625 47.3256 50.5291C48.5173 50.7786 49.7505 50.9196 51.0091 50.9432L51.0055 50.9504Z" fill="black"/>
<path d="M17.5288 12.3542H17.527C16.2247 12.3542 15.1689 13.41 15.1689 14.7123V14.7141C15.1689 16.0164 16.2247 17.0721 17.527 17.0721H17.5288C18.8311 17.0721 19.8868 16.0164 19.8868 14.7141V14.7123C19.8868 13.41 18.8311 12.3542 17.5288 12.3542Z" fill="black"/>
</g>
<defs>
<clipPath id="clip0_753_1745">
<rect width="62.9936" height="62.9828" fill="white" transform="translate(0.00634766)"/>
</clipPath>
</defs>
</svg>
