<svg width="24" height="25" viewBox="0 0 24 25" fill="none" xmlns="http://www.w3.org/2000/svg">
<path d="M12.4275 3.3181C12.3747 3.25643 12.3092 3.20693 12.2354 3.17298C12.1617 3.13904 12.0814 3.12146 12.0002 3.12146C11.919 3.12146 11.8388 3.13904 11.7651 3.17298C11.6913 3.20693 11.6258 3.25643 11.573 3.3181C10.0889 5.05389 5.25 11.0548 5.25 15.5C5.25 19.6423 7.85812 22.25 12 22.25C16.1419 22.25 18.75 19.6423 18.75 15.5C18.75 11.0548 13.9111 5.05389 12.4275 3.3181ZM12.75 19.8125C12.6599 19.8127 12.5711 19.7912 12.491 19.7499C12.4109 19.7087 12.3419 19.6487 12.2898 19.5752C12.2377 19.5017 12.2041 19.4168 12.1916 19.3276C12.1792 19.2383 12.1884 19.1474 12.2184 19.0625C12.2568 18.9516 12.3291 18.8557 12.4252 18.7884C12.5212 18.7211 12.636 18.6858 12.7533 18.6875C13.4978 18.6859 14.2114 18.3894 14.7379 17.8629C15.2644 17.3364 15.5609 16.6228 15.5625 15.8783C15.5608 15.761 15.5961 15.6462 15.6634 15.5501C15.7308 15.4541 15.8267 15.3818 15.9375 15.3434C16.0224 15.3134 16.1134 15.3042 16.2026 15.3166C16.2918 15.329 16.3768 15.3627 16.4503 15.4148C16.5238 15.4669 16.5837 15.5359 16.625 15.616C16.6663 15.6961 16.6877 15.7849 16.6875 15.875C16.6864 16.9189 16.2712 17.9198 15.533 18.658C14.7948 19.3962 13.7939 19.8114 12.75 19.8125Z" fill="#EEE7DB"/>
</svg>
