<svg width="1145" height="148" viewBox="0 0 1145 148" fill="none" xmlns="http://www.w3.org/2000/svg">
<g clip-path="url(#clip0_389_2774)">
<rect width="1145" height="148" fill="#21395D"/>
<g clip-path="url(#clip1_389_2774)">
<path d="M411.305 102.196L468.514 102.15L468.469 45.9386L411.26 45.9843L411.305 102.196Z" fill="#21395D" fill-opacity="0.54"/>
<path d="M958.707 23.7626L890.642 23.817L890.696 90.6952L958.76 90.6408L958.707 23.7626Z" fill="#21395D" fill-opacity="0.54"/>
<path d="M924.724 80.2992C937.689 80.2889 948.191 69.9536 948.181 57.2147C948.171 44.4758 937.652 34.1573 924.687 34.1676C911.723 34.178 901.221 44.5133 901.231 57.2522C901.241 69.9911 911.759 80.3096 924.724 80.2992Z" fill="#EEE7DB" fill-opacity="0.2"/>
<path d="M621.536 48.1176C608.778 35.6023 591.175 27.8555 571.704 27.8711C532.791 27.9022 501.277 58.9254 501.307 97.1518L501.405 219.592L642.31 219.479L642.212 97.0483C642.197 77.926 634.284 60.633 621.527 48.1176L621.536 48.1176ZM571.835 191.903C540.37 191.929 514.855 166.898 514.83 135.981C514.805 105.064 540.281 79.9928 571.746 79.9676C603.211 79.9425 628.727 104.991 628.751 135.89C628.776 166.789 603.3 191.878 571.835 191.903Z" fill="#21395D" fill-opacity="0.54"/>
<path d="M842.488 205.096L842.435 139.635L657.042 139.783L657.094 205.244L842.488 205.096Z" fill="#EEE7DB" fill-opacity="0.2"/>
<path d="M230.003 74.2298C233.193 74.2272 235.777 71.6838 235.775 68.5489C235.772 65.4141 233.184 62.8748 229.994 62.8773C226.803 62.8799 224.219 65.4233 224.221 68.5582C224.224 71.693 226.812 74.2323 230.003 74.2298Z" fill="#EEE7DB" fill-opacity="0.2"/>
<path d="M247.684 74.2161C250.875 74.2135 253.459 71.6701 253.457 68.5353C253.454 65.4004 250.866 62.8611 247.675 62.8637C244.485 62.8662 241.9 65.4096 241.903 68.5445C241.905 71.6794 244.494 74.2186 247.684 74.2161Z" fill="#EEE7DB" fill-opacity="0.2"/>
<path d="M265.372 74.2027C268.562 74.2001 271.147 71.6567 271.144 68.5218C271.142 65.387 268.553 62.8477 265.363 62.8502C262.172 62.8528 259.588 65.3962 259.59 68.5311C259.593 71.6659 262.181 74.2052 265.372 74.2027Z" fill="#EEE7DB" fill-opacity="0.2"/>
<path d="M283.051 74.1878C286.242 74.1852 288.826 71.6418 288.824 68.5069C288.821 65.3721 286.233 62.8328 283.042 62.8354C279.852 62.8379 277.268 65.3813 277.27 68.5162C277.273 71.6511 279.861 74.1903 283.051 74.1878Z" fill="#EEE7DB" fill-opacity="0.2"/>
<path d="M700.547 116.449C706.675 116.444 711.638 111.559 711.633 105.539C711.629 99.5183 706.657 94.6416 700.53 94.6465C694.403 94.6514 689.439 99.536 689.444 105.557C689.449 111.577 694.42 116.454 700.547 116.449Z" fill="#EEE7DB" fill-opacity="0.2"/>
<path d="M734.528 116.421C740.655 116.416 745.619 111.532 745.614 105.511C745.609 99.4905 740.638 94.6138 734.51 94.6187C728.383 94.6236 723.42 99.5082 723.425 105.529C723.429 111.549 728.401 116.426 734.528 116.421Z" fill="#EEE7DB" fill-opacity="0.2"/>
<path d="M768.51 116.395C774.638 116.39 779.601 111.505 779.596 105.485C779.592 99.4641 774.62 94.5874 768.493 94.5923C762.366 94.5972 757.402 99.4818 757.407 105.502C757.412 111.523 762.383 116.4 768.51 116.395Z" fill="#EEE7DB" fill-opacity="0.2"/>
<path d="M802.501 116.367C808.628 116.362 813.591 111.477 813.586 105.457C813.582 99.4363 808.611 94.5596 802.483 94.5645C796.356 94.5694 791.392 99.454 791.397 105.475C791.402 111.495 796.373 116.372 802.501 116.367Z" fill="#EEE7DB" fill-opacity="0.2"/>
<path d="M1131.72 127.376C1120.96 110.843 1102.12 99.8937 1080.69 99.9108C1047.32 99.9375 1020.3 126.535 1020.32 159.32C1020.34 180.374 1031.51 198.873 1048.36 209.418C1057.73 215.258 1068.87 218.642 1080.79 218.633C1114.17 218.606 1141.19 192.008 1141.16 159.224C1141.15 147.492 1137.69 136.567 1131.73 127.367L1131.72 127.376ZM1080.78 214.455C1070.04 214.463 1060.02 211.502 1051.47 206.356C1035.37 196.659 1024.6 179.206 1024.58 159.326C1024.56 128.887 1049.72 104.132 1080.69 104.107C1100.93 104.091 1118.71 114.653 1128.58 130.474C1133.85 138.862 1136.88 148.705 1136.89 159.245C1136.91 189.657 1111.73 214.439 1080.78 214.464L1080.78 214.455Z" fill="#EEE7DB" fill-opacity="0.2"/>
<path d="M1127.3 131.72C1117.8 116.188 1100.49 105.824 1080.68 105.84C1050.65 105.864 1026.31 129.816 1026.34 159.325C1026.35 178.781 1036.94 195.774 1052.75 205.083C1060.93 209.941 1070.51 212.713 1080.77 212.704C1110.8 212.68 1135.12 188.747 1135.1 159.238C1135.09 149.185 1132.25 139.766 1127.3 131.72ZM1080.77 208.508C1071.71 208.515 1063.2 206.149 1055.87 202.004C1040.8 193.524 1030.61 177.568 1030.6 159.312C1030.58 132.159 1053.05 110.04 1080.69 110.018C1099.27 110.004 1115.54 119.989 1124.18 134.782C1128.41 141.98 1130.83 150.334 1130.84 159.232C1130.86 186.386 1108.4 208.486 1080.77 208.508Z" fill="#EEE7DB" fill-opacity="0.2"/>
<path d="M1122.88 136.072C1114.62 121.568 1098.82 111.771 1080.69 111.785C1054 111.807 1032.37 133.094 1032.39 159.318C1032.41 177.114 1042.39 192.619 1057.16 200.756C1064.13 204.594 1072.21 206.781 1080.78 206.774C1107.46 206.753 1129.09 185.465 1129.07 159.241C1129.07 150.831 1126.82 142.918 1122.88 136.072ZM1080.76 202.596C1073.38 202.602 1066.42 200.811 1060.31 197.649C1046.28 190.423 1036.67 175.955 1036.65 159.324C1036.63 135.455 1056.4 116.001 1080.69 115.982C1097.63 115.968 1112.36 125.396 1119.74 139.17C1122.96 145.168 1124.8 152.016 1124.8 159.254C1124.82 183.122 1105.05 202.576 1080.76 202.596Z" fill="#EEE7DB" fill-opacity="0.2"/>
<path d="M1118.43 140.452C1111.45 126.949 1097.16 117.719 1080.7 117.732C1057.35 117.751 1038.43 136.374 1038.45 159.314C1038.47 175.485 1047.88 189.51 1061.64 196.348C1067.37 199.222 1073.87 200.833 1080.77 200.827C1104.13 200.808 1123.05 182.185 1123.03 159.246C1123.03 152.487 1121.37 146.108 1118.44 140.452L1118.43 140.452ZM1080.77 196.64C1075.07 196.644 1069.69 195.412 1064.84 193.196C1051.79 187.305 1042.73 174.317 1042.71 159.301C1042.7 138.69 1059.73 121.927 1080.71 121.911C1095.99 121.898 1109.21 130.786 1115.24 143.595C1117.5 148.358 1118.76 153.645 1118.77 159.24C1118.79 179.852 1101.75 196.614 1080.78 196.631L1080.77 196.64Z" fill="#EEE7DB" fill-opacity="0.2"/>
<path d="M1113.92 144.897C1108.29 132.376 1095.53 123.642 1080.71 123.654C1060.7 123.67 1044.46 139.62 1044.48 159.31C1044.49 173.884 1053.4 186.403 1066.17 191.888C1070.63 193.834 1075.58 194.913 1080.77 194.909C1100.78 194.893 1117.01 178.916 1117 159.252C1116.99 154.136 1115.89 149.273 1113.92 144.897ZM1080.76 190.704C1076.78 190.707 1072.96 189.997 1069.45 188.664C1057.36 184.198 1048.75 172.717 1048.74 159.307C1048.73 141.981 1063.07 127.855 1080.71 127.841C1094.36 127.83 1106.06 136.277 1110.64 148.122C1111.98 151.577 1112.73 155.339 1112.73 159.256C1112.75 176.582 1098.4 190.69 1080.76 190.704Z" fill="#EEE7DB" fill-opacity="0.2"/>
<path d="M1109.26 149.475C1105.13 137.882 1093.91 129.589 1080.71 129.599C1064.02 129.613 1050.52 142.898 1050.53 159.304C1050.54 172.272 1059.02 183.283 1070.82 187.326C1073.93 188.388 1077.29 188.963 1080.76 188.96C1097.44 188.947 1110.96 175.635 1110.94 159.256C1110.94 155.817 1110.35 152.542 1109.26 149.475ZM1080.76 184.773C1078.52 184.775 1076.32 184.488 1074.24 183.948C1063.07 181.123 1054.8 171.149 1054.79 159.301C1054.78 145.232 1066.42 133.798 1080.72 133.786C1092.78 133.777 1102.94 141.872 1105.83 152.853C1106.38 154.901 1106.68 157.057 1106.68 159.259C1106.69 173.31 1095.06 184.762 1080.76 184.773Z" fill="#EEE7DB" fill-opacity="0.2"/>
<path d="M1104.35 154.299C1102.03 143.553 1092.33 135.511 1080.71 135.521C1067.35 135.531 1056.53 146.17 1056.54 159.301C1056.55 170.707 1064.75 180.23 1075.69 182.504C1077.33 182.855 1079.01 183.025 1080.75 183.024C1094.1 183.013 1104.89 172.374 1104.88 159.271C1104.88 157.574 1104.7 155.914 1104.34 154.308L1104.35 154.299ZM1080.74 178.828C1080.31 178.828 1079.88 178.81 1079.47 178.793C1069.08 178.142 1060.84 169.657 1060.83 159.297C1060.82 148.937 1069.74 139.717 1080.71 139.708C1091.69 139.699 1099.9 147.796 1100.58 158.011C1100.6 158.417 1100.62 158.841 1100.62 159.265C1100.63 170.049 1091.72 178.819 1080.74 178.828Z" fill="#EEE7DB" fill-opacity="0.2"/>
<path d="M1080.72 141.466C1070.7 141.474 1062.6 149.449 1062.61 159.294C1062.61 169.14 1070.73 177.102 1080.75 177.094L1081.2 177.093C1090.86 176.851 1098.63 169.201 1098.87 159.708L1098.87 159.265C1098.86 149.42 1090.74 141.458 1080.72 141.466ZM1086.94 171.448C1085.09 172.379 1082.97 172.896 1080.75 172.897C1073.11 172.903 1066.87 166.79 1066.87 159.282C1066.86 151.774 1073.08 145.65 1080.72 145.644C1088.37 145.638 1094.6 151.752 1094.6 159.26C1094.61 161.444 1094.07 163.511 1093.14 165.343C1091.81 167.988 1089.63 170.129 1086.94 171.448Z" fill="#EEE7DB" fill-opacity="0.2"/>
<path d="M1080.73 147.414C1074.05 147.42 1068.65 152.73 1068.66 159.291C1068.66 165.851 1074.07 171.153 1080.75 171.148C1087.42 171.143 1092.82 165.832 1092.81 159.272C1092.81 152.711 1087.4 147.409 1080.73 147.414ZM1080.74 166.961C1076.42 166.964 1072.92 163.511 1072.92 159.287C1072.92 155.064 1076.41 151.605 1080.73 151.602C1085.05 151.598 1088.55 155.034 1088.55 159.275C1088.56 163.516 1085.06 166.957 1080.74 166.961Z" fill="#EEE7DB" fill-opacity="0.2"/>
<path d="M218.774 31.6453L89.2403 159.125L89.1385 31.7489L218.774 31.6453Z" fill="#21395D" fill-opacity="0.54"/>
<path d="M468.523 102.142L411.269 45.9757L468.478 45.93L468.523 102.142Z" fill="#21395D" fill-opacity="0.54"/>
<path d="M957.042 147.818L883.173 147.877L920.074 111.552L957.042 147.818Z" fill="#21395D" fill-opacity="0.54"/>
<path d="M1040.19 219.251L1160.37 105.096L1160.46 219.154L1040.19 219.251Z" fill="#21395D" fill-opacity="0.54"/>
<path d="M92.2557 219.449C92.2212 176.25 127.837 141.199 171.802 141.164C215.767 141.129 251.439 176.123 251.474 219.322L92.2557 219.449Z" fill="#21395D" fill-opacity="0.54"/>
<path d="M-14.9376 123.256C10.6864 123.236 31.4683 143.623 31.4884 168.8C31.5086 193.977 10.7593 214.398 -14.8648 214.418L-14.9376 123.256Z" fill="#EEE7DB" fill-opacity="0.2"/>
<path d="M190.555 220.381C190.932 152.979 246.812 98.2211 315.51 98.1663C384.208 98.1114 440.175 152.78 440.66 220.181L450.157 220.174C449.667 147.512 389.555 88.7761 315.502 88.8353C241.45 88.8944 181.432 147.726 181.058 220.389L190.555 220.381Z" fill="#EEE7DB" fill-opacity="0.2"/>
<path d="M204.009 220.371C204.393 160.26 254.242 111.436 315.52 111.387C376.797 111.338 426.725 160.074 427.205 220.192L436.701 220.185C436.217 154.823 382.135 102.003 315.512 102.056C248.89 102.109 194.892 155.016 194.512 220.378L204.009 220.371Z" fill="#EEE7DB" fill-opacity="0.2"/>
<path d="M217.474 220.359C217.864 167.531 261.675 124.649 315.541 124.606C369.406 124.563 413.286 167.375 413.76 220.202L423.256 220.195C422.778 162.133 374.726 115.237 315.542 115.284C256.359 115.332 208.372 162.305 207.996 220.366L217.493 220.359L217.474 220.359Z" fill="#EEE7DB" fill-opacity="0.2"/>
<path d="M230.929 220.348C231.324 174.812 269.107 137.873 315.542 137.836C361.978 137.799 399.828 174.686 400.287 220.213L409.783 220.205C409.311 169.445 367.288 128.463 315.535 128.505C263.781 128.546 221.815 169.604 221.433 220.356L230.929 220.348Z" fill="#EEE7DB" fill-opacity="0.2"/>
<path d="M244.384 220.338C244.785 182.093 276.537 151.087 315.552 151.056C354.567 151.025 386.378 181.98 386.831 220.224L396.328 220.216C395.861 176.765 359.868 141.69 315.545 141.725C271.222 141.761 235.284 176.893 234.887 220.345L244.384 220.338Z" fill="#EEE7DB" fill-opacity="0.2"/>
<path d="M696.47 83.3859C696.639 52.9833 721.848 28.282 752.836 28.2572C783.823 28.2325 809.072 52.8935 809.289 83.2957L813.569 83.2923C813.35 50.5167 786.235 24.0253 752.832 24.052C719.429 24.0787 692.357 50.6133 692.19 83.3893L696.47 83.3859Z" fill="#21395D" fill-opacity="0.54"/>
<path d="M702.541 83.3821C702.713 56.2643 725.196 34.2454 752.841 34.2233C780.486 34.2012 803.005 56.1842 803.219 83.3016L807.499 83.2982C807.283 53.8164 782.889 29.994 752.838 30.018C722.787 30.042 698.431 53.9034 698.261 83.3855L702.541 83.3821Z" fill="#21395D" fill-opacity="0.54"/>
<path d="M708.611 83.3768C708.785 59.5528 728.552 40.2073 752.844 40.1878C777.137 40.1684 796.935 59.4824 797.147 83.3061L801.427 83.3027C801.213 57.1147 779.54 35.9613 752.841 35.9826C726.142 36.0039 704.503 57.1919 704.331 83.3802L708.611 83.3768Z" fill="#21395D" fill-opacity="0.54"/>
<path d="M714.682 83.3713C714.859 62.8321 731.901 46.1689 752.85 46.1522C773.799 46.1354 790.868 62.7714 791.077 83.3103L795.357 83.3069C795.146 60.4127 776.193 41.9283 752.847 41.9469C729.5 41.9656 710.577 60.4802 710.403 83.3747L714.682 83.3713Z" fill="#21395D" fill-opacity="0.54"/>
<path d="M720.744 83.3654C720.923 66.1201 735.249 52.1302 752.846 52.1161C770.443 52.1021 784.79 66.0691 784.997 83.3141L789.277 83.3107C789.068 63.7103 772.836 47.8859 752.842 47.9018C732.848 47.9178 716.641 63.7592 716.464 83.3688L720.744 83.3654Z" fill="#21395D" fill-opacity="0.54"/>
<path d="M726.814 83.3617C726.996 69.4012 738.596 58.0936 752.85 58.0823C767.104 58.0709 778.721 69.3599 778.925 83.3201L783.205 83.3167C782.999 67.0102 769.479 53.8547 752.837 53.868C736.195 53.8813 722.696 67.0583 722.516 83.3652L726.796 83.3617L726.814 83.3617Z" fill="#21395D" fill-opacity="0.54"/>
<path d="M732.885 83.3561C733.07 72.6804 741.953 64.0552 752.855 64.0465C763.766 64.0377 772.654 72.6578 772.855 83.3242L777.135 83.3208C776.932 70.3081 766.132 59.8216 752.842 59.8322C739.553 59.8428 728.77 70.3465 728.587 83.3595L732.867 83.3561L732.885 83.3561Z" fill="#21395D" fill-opacity="0.54"/>
<path d="M738.965 83.3507C739.152 75.9688 745.3 70.0079 752.859 70.0019C760.418 69.9958 766.585 75.9379 766.775 83.3285L771.054 83.3251C770.854 73.6062 762.784 65.7887 752.846 65.7966C742.909 65.8046 734.852 73.635 734.666 83.3542L738.946 83.3507L738.965 83.3507Z" fill="#21395D" fill-opacity="0.54"/>
<path d="M745.037 83.3469C745.227 79.2498 748.659 75.9713 752.875 75.9679C757.09 75.9646 760.528 79.2376 760.724 83.3344L765.004 83.331C764.806 76.9059 759.457 71.7574 752.871 71.7627C746.286 71.7679 740.945 76.925 740.757 83.3504L745.037 83.3469Z" fill="#21395D" fill-opacity="0.54"/>
<path d="M758.932 83.3371C758.746 80.2059 756.108 77.7263 752.875 77.7289C749.642 77.7315 747.008 80.2153 746.827 83.3468L758.932 83.3371Z" fill="#21395D" fill-opacity="0.54"/>
<path d="M658.264 130.253L841.195 130.106" stroke="#21395D" stroke-opacity="0.54" stroke-width="8.55" stroke-miterlimit="10"/>
<path d="M1160.3 20.5498L1002.09 20.6761L1002.14 86.0803L1160.36 85.9539L1160.3 20.5498Z" fill="#21395D" fill-opacity="0.54"/>
<path d="M1023.96 72.6748C1027.15 72.6723 1029.74 70.1289 1029.74 66.994C1029.73 63.8591 1027.15 61.3199 1023.95 61.3224C1020.76 61.325 1018.18 63.8684 1018.18 67.0032C1018.18 70.1381 1020.77 72.6774 1023.96 72.6748Z" fill="#EEE7DB" fill-opacity="0.2"/>
<path d="M1041.64 72.6614C1044.83 72.6588 1047.42 70.1155 1047.42 66.9806C1047.41 63.8457 1044.82 61.3064 1041.63 61.309C1038.44 61.3115 1035.86 63.8549 1035.86 66.9898C1035.86 70.1247 1038.45 72.6639 1041.64 72.6614Z" fill="#EEE7DB" fill-opacity="0.2"/>
<path d="M1059.32 72.648C1062.51 72.6454 1065.1 70.102 1065.1 66.9671C1065.09 63.8323 1062.5 61.293 1059.31 61.2956C1056.12 61.2981 1053.54 63.8415 1053.54 66.9764C1053.54 70.1113 1056.13 72.6505 1059.32 72.648Z" fill="#EEE7DB" fill-opacity="0.2"/>
<path d="M1077.01 72.6328C1080.2 72.6303 1082.79 70.0869 1082.78 66.952C1082.78 63.8171 1080.19 61.2779 1077 61.2804C1073.81 61.283 1071.23 63.8264 1071.23 66.9612C1071.23 70.0961 1073.82 72.6354 1077.01 72.6328Z" fill="#EEE7DB" fill-opacity="0.2"/>
<path d="M26.5853 21.5466L-24.3965 21.5873L-24.328 107.308L26.6538 107.267L26.5853 21.5466Z" fill="#21395D" fill-opacity="0.54"/>
</g>
</g>
<defs>
<clipPath id="clip0_389_2774">
<rect width="1145" height="148" fill="white"/>
</clipPath>
<clipPath id="clip1_389_2774">
<rect width="1158.35" height="180.775" fill="white" transform="translate(1.8866 21.5663) rotate(-0.045768)"/>
</clipPath>
</defs>
</svg>
