<svg width="24" height="25" viewBox="0 0 24 25" fill="none" xmlns="http://www.w3.org/2000/svg">
<path d="M18 2.5H7C5.897 2.5 5 3.397 5 4.5V7.5C5 8.603 5.897 9.5 7 9.5H18C19.103 9.5 20 8.603 20 7.5V4.5C20 3.397 19.103 2.5 18 2.5ZM7 7.5V4.5H18L18.002 7.5H7Z" fill="#21395D"/>
<path d="M13 15.5V13.5C13 12.397 12.103 11.5 11 11.5H4V5.5C2.897 5.5 2 6.397 2 7.5V11.5C2 12.603 2.897 13.5 4 13.5H11V15.5C10.7348 15.5 10.4804 15.6054 10.2929 15.7929C10.1054 15.9804 10 16.2348 10 16.5V21.5C10 21.7652 10.1054 22.0196 10.2929 22.2071C10.4804 22.3946 10.7348 22.5 11 22.5H13C13.2652 22.5 13.5196 22.3946 13.7071 22.2071C13.8946 22.0196 14 21.7652 14 21.5V16.5C14 16.2348 13.8946 15.9804 13.7071 15.7929C13.5196 15.6054 13.2652 15.5 13 15.5Z" fill="#21395D"/>
</svg>
