<svg width="13" height="16" viewBox="0 0 13 16" fill="none" xmlns="http://www.w3.org/2000/svg">
<path d="M3.30251 8.17463C3.30251 7.79463 3.03851 7.56763 2.57301 7.56763C2.38301 7.56763 2.25451 7.58613 2.18701 7.60413V8.82463C2.26701 8.84263 2.36501 8.84913 2.49951 8.84913C2.99601 8.84913 3.30251 8.59763 3.30251 8.17463ZM6.18551 7.57963C5.97701 7.57963 5.84201 7.59813 5.76201 7.61663V10.3206C5.84201 10.3391 5.97051 10.3391 6.08701 10.3391C6.93301 10.3451 7.48501 9.87913 7.48501 8.89213C7.49151 8.03363 6.98851 7.57963 6.18551 7.57963Z" fill="#21395D"/>
<path d="M11.709 5.99113H11.37V4.35563L11.367 4.32463C11.3673 4.25889 11.3441 4.19521 11.3015 4.14513L8.58 1.03713L8.578 1.03513C8.54338 0.9977 8.49935 0.970246 8.4505 0.955628L8.4355 0.950628C8.41476 0.945252 8.39342 0.942563 8.372 0.942628H1.6835C1.378 0.942628 1.13 1.19113 1.13 1.49613V5.99113H0.791C0.354 5.99113 0 6.34513 0 6.78213V10.8961C0 11.3326 0.3545 11.6871 0.791 11.6871H1.13V14.5036C1.13 14.8086 1.378 15.0571 1.6835 15.0571H10.8165C11.1215 15.0571 11.37 14.8086 11.37 14.5036V11.6871H11.709C12.146 11.6871 12.5 11.3326 12.5 10.8961V6.78213C12.5 6.34513 12.1455 5.99113 11.709 5.99113ZM1.6835 1.49613H8.095V4.32813C8.095 4.48113 8.219 4.60463 8.372 4.60463H10.817V5.99113H1.6835V1.49613ZM8.4785 8.86113C8.4785 9.65213 8.1905 10.1981 7.791 10.5351C7.356 10.8966 6.694 11.0686 5.8845 11.0686C5.4 11.0686 5.057 11.0376 4.8235 11.0076V6.94813C5.167 6.89313 5.6145 6.86263 6.087 6.86263C6.8715 6.86263 7.3805 7.00363 7.779 7.30413C8.2085 7.62263 8.4785 8.13163 8.4785 8.86113ZM1.2605 11.0261V6.94813C1.5485 6.89913 1.9535 6.86263 2.5235 6.86263C3.1 6.86263 3.511 6.97313 3.7865 7.19363C4.05 7.40213 4.2275 7.74563 4.2275 8.15013C4.2275 8.55513 4.093 8.89813 3.8475 9.13113C3.5285 9.43163 3.0565 9.56663 2.5045 9.56663C2.382 9.56663 2.2715 9.56063 2.186 9.54813V11.0261H1.2605ZM10.8165 14.3536H1.6835V11.6871H10.8165V14.3536ZM11.6185 7.65963H10.03V8.60413H11.514V9.36463H10.03V11.0261H9.0925V6.89313H11.6185V7.65963Z" fill="#21395D"/>
</svg>
