<svg width="136" height="103" viewBox="0 0 136 103" fill="none" xmlns="http://www.w3.org/2000/svg">
<path d="M12.4951 102.34C19.1667 102.34 24.5751 96.9313 24.5751 90.2597C24.5751 83.5881 19.1667 78.1797 12.4951 78.1797C5.82346 78.1797 0.415039 83.5881 0.415039 90.2597C0.415039 96.9313 5.82346 102.34 12.4951 102.34Z" fill="#EEE7DB"/>
<path d="M49.4951 102.34C56.1667 102.34 61.5751 96.9313 61.5751 90.2597C61.5751 83.5881 56.1667 78.1797 49.4951 78.1797C42.8235 78.1797 37.415 83.5881 37.415 90.2597C37.415 96.9313 42.8235 102.34 49.4951 102.34Z" fill="#EEE7DB"/>
<path d="M86.4951 102.34C93.1667 102.34 98.5751 96.9313 98.5751 90.2597C98.5751 83.5881 93.1667 78.1797 86.4951 78.1797C79.8235 78.1797 74.415 83.5881 74.415 90.2597C74.415 96.9313 79.8235 102.34 86.4951 102.34Z" fill="#EEE7DB"/>
<path d="M123.505 102.34C130.177 102.34 135.585 96.9313 135.585 90.2597C135.585 83.5881 130.177 78.1797 123.505 78.1797C116.834 78.1797 111.425 83.5881 111.425 90.2597C111.425 96.9313 116.834 102.34 123.505 102.34Z" fill="#EEE7DB"/>
<path d="M8.08533 65.7C8.29533 32.01 35.7653 4.66 69.5053 4.66C103.245 4.66 130.715 32.01 130.925 65.7H135.585C135.375 29.38 105.875 0 69.5053 0C33.1353 0 3.63529 29.38 3.42529 65.7H8.08533Z" fill="#21395D"/>
<path d="M14.6952 65.7004C14.9052 35.6504 39.4052 11.2704 69.5052 11.2704C99.6052 11.2704 124.105 35.6504 124.315 65.7004H128.975C128.765 33.0304 102.225 6.61035 69.5052 6.61035C36.7852 6.61035 10.2452 33.0304 10.0352 65.7004H14.6952Z" fill="#21395D"/>
<path d="M21.3055 65.6997C21.5155 39.2997 43.0555 17.8797 69.5055 17.8797C95.9555 17.8797 117.496 39.2997 117.706 65.6997H122.365C122.155 36.6797 98.5755 13.2197 69.5055 13.2197C40.4355 13.2197 16.8555 36.6797 16.6455 65.6997H21.3055Z" fill="#21395D"/>
<path d="M27.9153 65.7001C28.1253 42.9401 46.6954 24.4901 69.5054 24.4901C92.3154 24.4901 110.885 42.9401 111.095 65.7001H115.755C115.545 40.3301 94.9254 19.8301 69.5054 19.8301C44.0854 19.8301 23.4654 40.3301 23.2554 65.7001H27.9153Z" fill="#21395D"/>
<path d="M34.5155 65.6997C34.7255 46.5897 50.3355 31.0997 69.4955 31.0997C88.6555 31.0997 104.265 46.5897 104.475 65.6997H109.135C108.925 43.9797 91.2655 26.4297 69.4955 26.4297C47.7255 26.4297 30.0655 43.9697 29.8555 65.6997H34.5155Z" fill="#21395D"/>
<path d="M41.1253 65.7C41.3353 50.23 53.9753 37.71 69.4953 37.71C85.0153 37.71 97.6553 50.23 97.8653 65.7H102.525C102.315 47.63 87.6053 33.04 69.4853 33.04C51.3653 33.04 36.6553 47.63 36.4453 65.7H41.1053H41.1253Z" fill="#21395D"/>
<path d="M47.7352 65.7004C47.9452 53.8704 57.6252 44.3204 69.4952 44.3204C81.3752 44.3204 91.0452 53.8804 91.2552 65.7004H95.9152C95.7052 51.2804 83.9552 39.6504 69.4852 39.6504C55.0152 39.6504 43.2652 51.2804 43.0552 65.7004H47.7151H47.7352Z" fill="#21395D"/>
<path d="M54.3553 65.6998C54.5653 57.5198 61.2653 50.9198 69.4953 50.9198C77.7253 50.9198 84.4353 57.5098 84.6353 65.6998H89.2953C89.0853 54.9298 80.3053 46.2598 69.4853 46.2598C58.6653 46.2598 49.8853 54.9298 49.6753 65.6998H54.3353H54.3553Z" fill="#21395D"/>
<path d="M60.9651 65.7001C61.1751 61.1601 64.9152 57.5301 69.5052 57.5301C74.0952 57.5301 77.8352 61.1601 78.0452 65.7001H82.7052C82.4952 58.5801 76.6752 52.8701 69.5052 52.8701C62.3352 52.8701 56.5152 58.5801 56.3052 65.7001H60.9651Z" fill="#21395D"/>
<path d="M76.095 65.7005C75.895 62.2305 73.0251 59.4805 69.5051 59.4805C65.9851 59.4805 63.115 62.2305 62.915 65.7005H76.095Z" fill="#21395D"/>
</svg>
