<svg width="24" height="25" viewBox="0 0 24 25" fill="none" xmlns="http://www.w3.org/2000/svg">
<path d="M0 17.2682L11.5781 23.8307V18.2057L0 13.0495V17.2682ZM24 13.0503L12.4219 18.2057V23.8307L24 17.2924V13.0503ZM21.3358 13.5268L23.1527 12.7234L19.1642 11.2117L18.795 12.2094C19.5229 12.5314 20.3911 12.9915 21.3358 13.5268ZM16.7506 1.16919L15.9962 3.28719C15.8287 3.87299 16.1291 4.77097 17.0935 4.95941L15.8366 8.46613C14.8151 8.03942 13.9034 8.33347 13.3553 8.92695L11.9776 8.39788L0.846563 12.7216L2.65997 13.5136C5.63944 11.7379 9.16416 10.5123 12.5395 10.7061L12.0503 12.0203C10.7685 12.0583 9.67237 12.3802 8.7113 12.9087C12.0645 12.369 15.5574 13.2654 18.1405 14.5933C18.0781 14.289 17.9068 14.013 17.6212 13.7397L18.5349 11.1499C18.8106 10.4101 18.593 9.01016 16.8811 8.75628L18.1432 5.26011C19.3259 5.55777 20.0298 4.78742 20.196 4.27756L20.885 2.31524L16.7506 1.16919ZM19.1063 4.01047C19.0721 4.15264 18.8215 4.26913 18.6228 4.1811L17.3886 3.83417C17.1483 3.73963 17.0552 3.59263 17.1326 3.38483L17.4227 2.56583L19.4361 3.12889L19.1063 4.01047Z" fill="#21395D"/>
</svg>
