<svg width="33" height="31" viewBox="0 0 33 31" fill="none" xmlns="http://www.w3.org/2000/svg">
<rect x="0.330078" y="0.426636" width="31.99" height="30.3103" rx="15.1552" fill="white"/>
<path d="M17.778 5.52991C17.2983 5.52991 16.8432 5.74124 16.5521 6.11106C14.4732 8.74453 13.2185 11.8576 12.6486 14.9503C12.1524 17.6569 12.3862 21.0991 13.3128 24.269C13.5055 24.9274 13.8377 25.3866 16.4619 25.3866C23.539 25.3866 26.6839 22.6516 26.6839 15.4501C26.688 8.47225 23.6866 5.52991 17.778 5.52991ZM17.5894 24.4925C17.1589 24.7079 16.6341 24.5413 16.4127 24.1268C16.4086 24.1187 16.4086 24.1146 16.4045 24.1065C14.9816 21.4242 14.506 18.3803 15.0596 15.3567C15.6131 12.329 17.1466 9.62642 19.4428 7.57817C19.4469 7.5741 19.4551 7.56597 19.4592 7.56191C19.82 7.24898 20.3735 7.27743 20.6934 7.62693C21.0173 7.97644 20.9845 8.51289 20.6237 8.82175C20.6196 8.82581 20.6155 8.82988 20.6073 8.83394C18.6637 10.5774 17.2737 12.9264 16.7735 15.6493C16.2773 18.364 16.7489 21.026 17.9462 23.3099L17.9421 23.314C17.9503 23.3262 17.9585 23.3384 17.9626 23.3506C18.1881 23.7692 18.0159 24.2812 17.5894 24.4925ZM22.9116 11.7885C22.9034 11.7966 22.8911 11.8007 22.8788 11.8088C21.456 12.9223 20.4268 14.4504 20.0701 16.2304C19.7093 18.0186 20.0824 19.7702 20.9927 21.2535L20.9845 21.2576C20.9927 21.2698 21.0009 21.2779 21.0091 21.2901C21.1567 21.5461 21.046 21.8591 20.7549 21.9891C20.4637 22.1192 20.1111 22.0216 19.9594 21.7656C19.9553 21.7575 19.9512 21.7493 19.9471 21.7412C18.9138 20.0587 18.4956 18.0755 18.9015 16.0516C19.3075 14.0318 20.476 12.2965 22.0998 11.0326C22.1121 11.0244 22.1203 11.0122 22.1326 11.0041C22.3786 10.8172 22.7558 10.8375 22.969 11.057C23.1863 11.2683 23.1576 11.5975 22.9116 11.7885ZM9.33555 23.0214C9.40525 23.3709 8.97062 23.6107 8.7 23.3668C7.15419 21.981 6.18652 20.2213 6.18652 15.4542C6.18652 9.32569 8.6139 6.70847 11.9187 5.81845C12.2468 5.72904 12.5174 6.07855 12.3452 6.36303C10.8445 8.81362 9.79888 11.5365 9.27814 14.3732C8.75331 17.2464 8.77381 20.1888 9.33555 23.0214Z" fill="url(#paint0_linear_330_2190)"/>
<defs>
<linearGradient id="paint0_linear_330_2190" x1="16.4373" y1="5.52991" x2="16.4373" y2="25.3894" gradientUnits="userSpaceOnUse">
<stop stop-color="#246BE8"/>
<stop offset="0.9995" stop-color="#3293F2"/>
</linearGradient>
</defs>
</svg>
