<svg width="13" height="13" viewBox="0 0 13 13" fill="none" xmlns="http://www.w3.org/2000/svg">
<path d="M12.7499 5.04378C12.7105 4.92946 12.6387 4.82905 12.5433 4.75472C12.4479 4.68039 12.3329 4.63534 12.2124 4.62503L8.65618 4.10628L7.06243 0.87503C7.01125 0.76936 6.93134 0.680243 6.83186 0.617888C6.73237 0.555533 6.61734 0.522461 6.49993 0.522461C6.38251 0.522461 6.26748 0.555533 6.16799 0.617888C6.06851 0.680243 5.9886 0.76936 5.93743 0.87503L4.34368 4.10003L0.787425 4.62503C0.671751 4.64147 0.563002 4.69001 0.473519 4.76513C0.384035 4.84025 0.3174 4.93895 0.281175 5.05003C0.248015 5.15858 0.24504 5.2741 0.272567 5.38421C0.300095 5.49432 0.357086 5.59486 0.437425 5.67503L3.01868 8.17503L2.39368 11.725C2.37136 11.8422 2.38305 11.9633 2.42734 12.0741C2.47164 12.1848 2.54671 12.2806 2.64368 12.35C2.73819 12.4176 2.84966 12.4575 2.96558 12.4652C3.0815 12.4729 3.19728 12.4482 3.29993 12.3938L6.49993 10.725L9.68743 12.4C9.77514 12.4495 9.87421 12.4754 9.97493 12.475C10.1073 12.4755 10.2364 12.4339 10.3437 12.3563C10.4406 12.2868 10.5157 12.1911 10.56 12.0803C10.6043 11.9696 10.616 11.8485 10.5937 11.7313L9.96867 8.18128L12.5499 5.68128C12.6402 5.60483 12.7069 5.50434 12.7423 5.3915C12.7777 5.27865 12.7803 5.15808 12.7499 5.04378ZM8.90618 7.54378C8.83288 7.61468 8.77804 7.70243 8.74645 7.79939C8.71486 7.89635 8.70747 7.99956 8.72493 8.10003L9.17493 10.7188L6.82493 9.46878C6.7345 9.42063 6.63362 9.39545 6.53118 9.39545C6.42873 9.39545 6.32785 9.42063 6.23743 9.46878L3.88743 10.7188L4.33743 8.10003C4.35489 7.99956 4.3475 7.89635 4.3159 7.79939C4.28431 7.70243 4.22947 7.61468 4.15618 7.54378L2.28118 5.66878L4.91243 5.28753C5.01367 5.27345 5.10992 5.23474 5.19274 5.17481C5.27555 5.11488 5.3424 5.03555 5.38743 4.94378L6.49993 2.56253L7.67493 4.95003C7.71995 5.0418 7.7868 5.12113 7.86961 5.18106C7.95243 5.24099 8.04868 5.2797 8.14993 5.29378L10.7812 5.67503L8.90618 7.54378Z" fill="#21395D"/>
</svg>
