<svg width="10" height="7" viewBox="0 0 10 7" fill="none" xmlns="http://www.w3.org/2000/svg">
<path d="M9.4997 9.53674e-07L0.499443 9.53674e-07C0.40832 0.000267982 0.319 0.023766 0.241098 0.0679655C0.163196 0.112164 0.0996609 0.175391 0.057333 0.250839C0.0150051 0.326288 -0.00451374 0.411102 0.000878334 0.496151C0.00626945 0.5812 0.0363674 0.663264 0.0879316 0.733509L4.58806 6.81101C4.77456 7.063 5.22358 7.063 5.41058 6.81101L9.91071 0.733509C9.9628 0.66341 9.99335 0.581306 9.99903 0.496115C10.0047 0.410924 9.98532 0.325906 9.94295 0.250297C9.90059 0.174689 9.83687 0.111381 9.75872 0.0672536C9.68058 0.0231261 9.59099 -0.000133514 9.4997 9.53674e-07ZM4.99957 5.72361L1.45347 0.935002L8.54567 0.935002L4.99957 5.72361Z" fill="#21395D" fill-opacity="0.2"/>
</svg>
