<svg width="18" height="21" viewBox="0 0 18 21" fill="none" xmlns="http://www.w3.org/2000/svg">
<path d="M16.9539 7.94232C16.2839 7.20232 15.2739 6.77232 13.8739 6.62232V5.86232C13.8739 4.49232 13.2939 3.17232 12.2739 2.25232C11.2439 1.31232 9.90389 0.872322 8.51389 1.00232C6.12389 1.23232 4.11389 3.54232 4.11389 6.04232V6.62232C2.71389 6.77232 1.70389 7.20232 1.03389 7.94232C0.0638863 9.02232 0.0938864 10.4623 0.203886 11.4623L0.903886 17.0323C1.11389 18.9823 1.90389 20.9823 6.20389 20.9823H11.7839C16.0839 20.9823 16.8739 18.9823 17.0839 17.0423L17.7839 11.4523C17.8939 10.4623 17.9139 9.02232 16.9539 7.94232ZM8.65389 2.39232C9.65389 2.30232 10.6039 2.61232 11.3439 3.28232C12.0739 3.94232 12.4839 4.88232 12.4839 5.86232V6.56232H5.50389V6.04232C5.50389 4.26232 6.97389 2.55232 8.65389 2.39232ZM5.41389 12.1323H5.40389C4.85389 12.1323 4.40389 11.6823 4.40389 11.1323C4.40389 10.5823 4.85389 10.1323 5.40389 10.1323C5.96389 10.1323 6.41389 10.5823 6.41389 11.1323C6.41389 11.6823 5.96389 12.1323 5.41389 12.1323ZM12.4139 12.1323H12.4039C11.8539 12.1323 11.4039 11.6823 11.4039 11.1323C11.4039 10.5823 11.8539 10.1323 12.4039 10.1323C12.9639 10.1323 13.4139 10.5823 13.4139 11.1323C13.4139 11.6823 12.9639 12.1323 12.4139 12.1323Z" fill="white"/>
</svg>
