<svg width="63" height="63" viewBox="0 0 63 63" fill="none" xmlns="http://www.w3.org/2000/svg">
<g clip-path="url(#clip0_406_1653)">
<path d="M12.6346 51.5781H12.6273C12.7322 51.6758 12.8407 51.7734 12.951 51.8656C12.8461 51.7716 12.7412 51.6758 12.6364 51.5781H12.6346ZM17.5242 51.9434C17.9328 52.2237 18.3451 52.4949 18.7683 52.7409C18.3488 52.4913 17.9328 52.2237 17.5242 51.9434Z" fill="white"/>
<path d="M32.4245 0H31.7012V31.2654H62.9936C62.8852 14.2783 49.3175 0.48643 32.4245 0ZM49.7262 26.0846C49.3031 26.5132 48.7118 26.7772 48.0608 26.7772C46.757 26.7772 45.6992 25.7193 45.6992 24.4155C45.6992 23.7628 45.9632 23.1751 46.3917 22.7465C46.8203 22.3234 47.4116 22.0575 48.0608 22.0575C48.71 22.0575 49.3013 22.3215 49.7262 22.7465C50.1548 23.1751 50.4188 23.7609 50.4188 24.4155C50.4188 25.0701 50.1548 25.656 49.7262 26.0846ZM48.6412 19.6634C48.6412 19.0106 48.9053 18.4229 49.3338 17.9943C49.7624 17.5712 50.3537 17.3053 51.0029 17.3053C51.652 17.3053 52.2434 17.5694 52.6719 17.9943C53.0969 18.4229 53.3609 19.0088 53.3609 19.6634C53.3609 20.318 53.0969 20.9038 52.6719 21.3324C52.2434 21.761 51.6539 22.025 51.0029 22.025C49.6991 22.025 48.6412 20.9671 48.6412 19.6634ZM53.9432 26.7772C52.6394 26.7772 51.5815 25.7193 51.5815 24.4155C51.5815 23.7628 51.8455 23.1751 52.2741 22.7465C52.7027 22.3234 53.2922 22.0575 53.9432 22.0575C54.5941 22.0575 55.1836 22.3215 55.6122 22.7465C56.0372 23.1751 56.3012 23.7609 56.3012 24.4155C56.3012 25.0701 56.0372 25.656 55.6122 26.0846C55.1836 26.5132 54.5941 26.7772 53.9432 26.7772Z" fill="white"/>
<path opacity="0.46" d="M28.0683 58.8272C27.5891 58.7694 27.1226 58.6989 26.6524 58.6175C27.1226 58.7025 27.5981 58.7766 28.0719 58.8345C28.0719 58.8309 28.0683 58.8309 28.0683 58.8272ZM26.1425 55.6772C24.5277 55.3155 22.9454 54.7984 21.421 54.1221C22.9219 54.7984 24.506 55.321 26.1461 55.6899C26.1461 55.6862 26.1425 55.6826 26.1425 55.679V55.6772Z" fill="white"/>
<path d="M31.2816 29.2584C31.1768 28.6942 31.0285 28.1372 30.8386 27.602C30.7102 27.224 30.5619 26.8624 30.3956 26.5098C29.9869 25.6273 29.477 24.8064 28.8621 24.0595C28.6054 23.7413 28.3323 23.4248 28.0376 23.1373C27.3106 22.4013 26.4897 21.7684 25.5873 21.2549C25.2022 21.0252 24.7971 20.8227 24.3848 20.6437C23.3306 20.1807 22.1877 19.8733 20.9961 19.7377C20.5639 19.6907 20.1245 19.6636 19.6778 19.6636C19.5838 19.6636 19.4916 19.6636 19.3975 19.6708C17.8732 19.7015 16.4175 20.0288 15.0884 20.5894C14.3886 20.8896 13.7267 21.2476 13.1047 21.6599C10.1011 23.6744 8.07583 27.0324 7.87692 30.8714V30.8786C7.86969 31.0106 7.86426 31.1354 7.86426 31.2674C7.85703 31.3451 7.85703 31.412 7.85703 31.4808H7.86426C7.86426 31.5549 7.86426 31.62 7.86788 31.6941H3.95654C3.97643 34.6579 4.47371 37.6344 5.46104 40.4933C5.60028 40.8983 5.74856 41.3016 5.90769 41.703C6.81364 43.9779 8.0469 46.1641 9.59841 48.202C9.64181 48.2599 9.67979 48.3141 9.7268 48.3684C9.7702 48.4263 9.81541 48.4805 9.86242 48.5366C10.593 49.4696 11.3796 50.3449 12.2042 51.1622C13.4682 51.1387 14.7014 50.994 15.8949 50.7336H15.8985C16.3723 50.6324 16.8442 50.5112 17.2981 50.3756C18.3831 50.0573 19.4301 49.6487 20.4337 49.1496C20.8351 48.9507 21.2239 48.7373 21.6091 48.5112C22.5114 47.9814 23.3758 47.3829 24.1714 46.7265C24.4987 46.4534 24.817 46.1749 25.1208 45.8856C25.8405 45.2093 26.5132 44.4733 27.1244 43.6958H27.1316C27.3775 43.3775 27.618 43.0538 27.8441 42.7157L29.2943 40.2455C29.4697 39.8911 29.6325 39.5295 29.7808 39.1678C30.1424 38.3125 30.439 37.421 30.6722 36.5078H30.6759C30.7699 36.1425 30.8513 35.761 30.9254 35.3794C31.1587 34.1896 31.3341 32.9599 31.3341 31.6996C31.3341 31.6996 31.4046 29.9112 31.2798 29.2566L31.2816 29.2584ZM21.0449 34.5295C18.2529 34.5295 15.9925 32.2656 15.9925 29.4736C15.9925 26.6816 18.2529 24.4176 21.0449 24.4176C23.8369 24.4176 26.0973 26.6852 26.0973 29.4736C26.0973 32.2619 23.8369 34.5295 21.0449 34.5295Z" fill="white"/>
<path d="M23.4029 12.354H23.4011C22.0988 12.354 21.0431 13.4097 21.0431 14.712V14.7138C21.0431 16.0161 22.0988 17.0718 23.4011 17.0718H23.4029C24.7052 17.0718 25.7609 16.0161 25.7609 14.7138V14.712C25.7609 13.4097 24.7052 12.354 23.4029 12.354Z" fill="white"/>
<path d="M56.8309 50.2002C51.133 57.9017 42.0011 62.9125 31.7029 62.9794C31.6324 62.983 31.5619 62.983 31.4913 62.983C31.4208 62.983 31.3503 62.983 31.2798 62.9794C24.3522 62.936 17.9509 60.6521 12.7719 56.8167C11.4283 55.824 10.1716 54.7282 9.00343 53.5401C8.39765 52.9199 7.81538 52.2743 7.26205 51.6071C7.07398 51.3846 6.89496 51.1586 6.71594 50.9307C8.08301 51.2978 9.51156 51.5166 10.9799 51.5745H10.9907C16.157 56.8511 23.3396 60.1476 31.2798 60.2019C31.3503 60.2055 31.4208 60.2055 31.4913 60.2055C31.5619 60.2055 31.6324 60.2055 31.7029 60.2019C39.9632 60.1386 47.4115 56.5744 52.6158 50.9181C54.0679 50.8277 55.4783 50.5817 56.8291 50.2002H56.8309Z" fill="white"/>
<path d="M42.7986 48.9868C39.5889 51.0682 35.7861 52.2851 31.7011 52.3249C31.6306 52.3285 31.5619 52.3285 31.4914 52.3285C31.4208 52.3285 31.3521 52.3285 31.2816 52.3249C27.4806 52.2851 23.9219 51.2273 20.8604 49.4082C19.8677 49.9217 18.8225 50.3539 17.7339 50.6884C21.553 53.4298 26.2292 55.0645 31.2816 55.1079C31.3521 55.1115 31.4208 55.1115 31.4914 55.1115C31.5619 55.1115 31.6306 55.1115 31.7011 55.1079C37.0537 55.0609 41.9849 53.2327 45.9215 50.1948C44.8402 49.8801 43.7986 49.4751 42.7986 48.9886V48.9868Z" fill="white"/>
<path d="M39.0447 46.6068C36.8313 47.7225 34.3377 48.3608 31.7012 48.388H31.2817C28.902 48.3608 26.6452 47.84 24.5982 46.9214C23.7972 47.5941 22.9382 48.2089 22.0359 48.7568C24.7863 50.2613 27.9327 51.1293 31.2817 51.1637C31.3522 51.1673 31.4209 51.1673 31.4914 51.1673C31.5656 51.1673 31.6307 51.1673 31.7012 51.1637C35.3304 51.1239 38.7228 50.1094 41.6233 48.3626C40.7173 47.8491 39.853 47.2578 39.0447 46.605V46.6068Z" fill="white"/>
<path d="M36.061 43.6196C34.6957 44.1368 33.2328 44.4243 31.7012 44.4514C31.6307 44.4551 31.5656 44.4551 31.4914 44.4551C31.4209 44.4551 31.3522 44.4551 31.2817 44.4514C29.9815 44.4279 28.7302 44.2182 27.5475 43.8402C26.9363 44.6305 26.2727 45.3773 25.5439 46.0699C27.3215 46.7968 29.2582 47.2055 31.2817 47.229C31.3522 47.2326 31.4209 47.2326 31.4914 47.2326C31.5656 47.2326 31.6307 47.2326 31.7012 47.229C33.985 47.2019 36.1423 46.6847 38.0917 45.7896C37.3647 45.1169 36.6794 44.39 36.061 43.6196Z" fill="white"/>
<path d="M33.8404 40.204C33.1604 40.3866 32.4407 40.4951 31.7011 40.5114C31.6306 40.515 31.5655 40.515 31.4914 40.515C31.4209 40.515 31.3522 40.515 31.2816 40.5114C30.7482 40.5005 30.231 40.4372 29.7265 40.336C29.3015 41.2112 28.8169 42.052 28.2762 42.8441C29.2328 43.1207 30.2401 43.2726 31.2834 43.2871C31.3503 43.2943 31.4227 43.2943 31.4932 43.2943C31.5673 43.2943 31.6379 43.2943 31.703 43.2871C32.9742 43.2672 34.1894 43.0466 35.3286 42.6524C34.7771 41.8712 34.2816 41.0575 33.8422 40.2021L33.8404 40.204Z" fill="white"/>
<path d="M32.401 36.4932C32.1749 36.5329 31.938 36.5601 31.7012 36.5673C31.6306 36.5745 31.5655 36.5745 31.4914 36.5745C31.4209 36.5745 31.3522 36.5745 31.2816 36.5673C31.2238 36.5637 31.1641 36.5637 31.1026 36.5565C30.8693 37.4787 30.5728 38.381 30.2166 39.2526C30.5619 39.3105 30.9164 39.3466 31.2816 39.3539C31.3522 39.3575 31.4209 39.3575 31.4914 39.3575C31.5655 39.3575 31.6306 39.3575 31.7012 39.3539C32.269 39.3376 32.8133 39.2653 33.3395 39.1369C32.9706 38.2852 32.6505 37.4064 32.4028 36.495L32.401 36.4932Z" fill="white"/>
<path d="M32.1315 35.3684C31.9923 35.3938 31.8476 35.4064 31.703 35.4155C31.6307 35.4191 31.5637 35.4191 31.4914 35.4191C31.4444 35.4191 31.3974 35.4191 31.3522 35.4155C31.5854 34.2129 31.703 32.967 31.703 31.6922V31.269C31.703 31.4083 31.703 31.5529 31.712 31.6922C31.7337 32.9508 31.8766 34.1786 32.1315 35.3684Z" fill="white"/>
<path d="M2.77754 31.7154V31.6919H0V31.7154C0.0162746 34.2904 0.345384 36.7913 0.94212 39.1873C1.09402 39.7822 1.26038 40.3735 1.44302 40.9612C1.53705 41.2487 1.62927 41.5417 1.73053 41.8292C1.77032 41.9467 1.81191 42.0624 1.85169 42.1746L4.39234 40.9919C3.36885 38.0824 2.80104 34.9595 2.77754 31.7154ZM4.8426 42.1981L2.31823 43.3771C2.33812 43.4313 2.35801 43.482 2.37971 43.5326C2.49725 43.8129 2.61298 44.0968 2.73775 44.368C2.82636 44.5669 2.91677 44.764 3.0108 44.9629C3.03793 45.0208 3.06505 45.0805 3.09941 45.1383C3.1844 45.321 3.27843 45.5072 3.37246 45.6863C3.45384 45.858 3.54063 46.0208 3.62562 46.1799C3.83177 46.5759 4.05419 46.9738 4.28384 47.3589C4.37787 47.5181 4.4701 47.6826 4.56774 47.8381C4.77751 48.1835 4.99993 48.5271 5.22596 48.8725C5.34712 49.0551 5.47189 49.2341 5.60028 49.4132C5.6708 49.518 5.74856 49.6265 5.8227 49.7314C5.96194 49.9339 6.11022 50.1274 6.25488 50.3227C6.26754 50.339 6.27477 50.3535 6.28562 50.3661V50.3697H6.28924C7.65088 50.7784 9.08124 51.0352 10.5532 51.1274C8.13731 48.5488 6.18978 45.5271 4.84622 42.1963L4.8426 42.1981Z" fill="white"/>
<path d="M50.9992 50.9506C46.059 55.9035 39.2436 58.9849 31.703 59.0391C31.6325 59.0463 31.5619 59.0463 31.4914 59.0463C31.4209 59.0463 31.3504 59.0463 31.2798 59.0391C30.1949 59.0319 29.1244 58.9614 28.0701 58.8275C27.5945 58.7697 27.1208 58.6992 26.6524 58.616C26.4535 58.5816 26.2546 58.5418 26.0539 58.5021C25.5928 58.4116 25.1316 58.3068 24.676 58.1892C24.5042 58.1458 24.3288 58.0988 24.157 58.0518C23.8243 57.9578 23.4969 57.8637 23.1733 57.7588C23.0123 57.7082 22.8532 57.6576 22.6923 57.6033C22.3487 57.4894 22.0087 57.3646 21.6724 57.2399C21.3162 57.1024 20.9653 56.9596 20.6145 56.8095C20.4427 56.7354 20.2746 56.6612 20.1064 56.5835C19.9455 56.5129 19.7863 56.4388 19.6254 56.361C19.6091 56.3538 19.5947 56.3448 19.5748 56.3375C19.4229 56.267 19.2746 56.1929 19.1263 56.1187C18.9509 56.0283 18.7755 55.9397 18.6037 55.8457C18.4355 55.7589 18.271 55.6703 18.1119 55.5799C17.7791 55.3954 17.4518 55.2055 17.1245 55.0012C16.9455 54.8927 16.7647 54.7788 16.5893 54.6649C16.3741 54.5274 16.1643 54.3882 15.9528 54.2399C15.8244 54.1531 15.6942 54.0681 15.5694 53.9741C15.3108 53.7951 15.0577 53.607 14.8081 53.4153C14.6562 53.3014 14.5079 53.1857 14.3597 53.0645C14.2114 52.947 14.0631 52.8258 13.9184 52.7047C13.6996 52.5202 13.4808 52.334 13.2656 52.1495C13.0541 51.9579 12.8443 51.7662 12.6364 51.5709C13.8985 51.5202 15.1318 51.3485 16.3271 51.0664C16.3271 51.0664 16.3283 51.0664 16.3307 51.0664C16.4591 51.1712 16.5893 51.2689 16.7213 51.3629C16.9835 51.5655 17.2529 51.7535 17.5224 51.9361C17.9328 52.2182 18.3469 52.4877 18.7683 52.7336C18.9093 52.824 19.0486 52.9054 19.1932 52.9831C19.3343 53.0699 19.4789 53.1477 19.6236 53.2255C19.7918 53.3195 19.9599 53.4099 20.1317 53.4949C20.3433 53.6034 20.5567 53.7137 20.7719 53.815C20.987 53.9198 21.2022 54.0211 21.421 54.1151C22.9255 54.7914 24.5096 55.314 26.1497 55.6811H26.1533C27.8061 56.0446 29.5204 56.2399 31.2816 56.2543C31.3522 56.258 31.4227 56.258 31.4932 56.258C31.5637 56.258 31.6343 56.258 31.7048 56.2543C37.6378 56.2073 43.0735 54.0627 47.3194 50.5293C48.511 50.7788 49.7443 50.9199 51.0029 50.9434L50.9992 50.9506Z" fill="white"/>
<path d="M17.5223 12.354H17.5205C16.2182 12.354 15.1625 13.4097 15.1625 14.712V14.7138C15.1625 16.0161 16.2182 17.0718 17.5205 17.0718H17.5223C18.8246 17.0718 19.8803 16.0161 19.8803 14.7138V14.712C19.8803 13.4097 18.8246 12.354 17.5223 12.354Z" fill="white"/>
</g>
<defs>
<clipPath id="clip0_406_1653">
<rect width="62.9936" height="62.9828" fill="white"/>
</clipPath>
</defs>
</svg>
