<svg width="16" height="19" viewBox="0 0 16 19" fill="none" xmlns="http://www.w3.org/2000/svg">
<path d="M12 6.99121C12 12.3212 4 12.3212 4 6.99121H6C6 9.66121 10 9.66121 10 6.99121M16 15.9912V18.9912H0V15.9912C0 13.3212 5.33 11.9912 8 11.9912C10.67 11.9912 16 13.3212 16 15.9912ZM14.1 15.9912C14.1 15.3512 10.97 13.8912 8 13.8912C5.03 13.8912 1.9 15.3512 1.9 15.9912V17.0912H14.1M8.5 -0.00878906C8.78 -0.00878906 9 0.211211 9 0.491211V3.49121H10V0.991211C10.7077 1.31873 11.3006 1.8514 11.7019 2.5201C12.1031 3.18879 12.294 3.96263 12.25 4.74121C12.25 4.74121 12.95 4.88121 13 5.99121H3C3 4.88121 3.75 4.74121 3.75 4.74121C3.70595 3.96263 3.89693 3.18879 4.29814 2.5201C4.69936 1.8514 5.29229 1.31873 6 0.991211V3.49121H7V0.491211C7 0.211211 7.22 -0.00878906 7.5 -0.00878906" fill="#21395D"/>
</svg>
