<svg width="21" height="22" viewBox="0 0 21 22" fill="none" xmlns="http://www.w3.org/2000/svg">
<path fill-rule="evenodd" clip-rule="evenodd" d="M9.73265 0.982422C15.1027 0.982422 19.4707 5.35042 19.4707 10.7204C19.4707 13.254 18.4984 15.5647 16.9073 17.2989L20.0381 20.4231C20.3311 20.7161 20.3321 21.1901 20.0391 21.4831C19.8931 21.6311 19.7001 21.7041 19.5081 21.7041C19.3171 21.7041 19.1251 21.6311 18.9781 21.4851L15.8095 18.3254C14.1427 19.6603 12.0293 20.4594 9.73265 20.4594C4.36265 20.4594 -0.00634766 16.0904 -0.00634766 10.7204C-0.00634766 5.35042 4.36265 0.982422 9.73265 0.982422ZM9.73265 2.48242C5.18965 2.48242 1.49365 6.17742 1.49365 10.7204C1.49365 15.2634 5.18965 18.9594 9.73265 18.9594C14.2747 18.9594 17.9707 15.2634 17.9707 10.7204C17.9707 6.17742 14.2747 2.48242 9.73265 2.48242Z" fill="white"/>
</svg>
