<svg width="101" height="862" viewBox="0 0 101 862" fill="none" xmlns="http://www.w3.org/2000/svg">
<g clip-path="url(#clip0_221_6148)">
<path d="M63.561 557.061L63.3574 514.54L21.0744 514.742L21.278 557.264L63.561 557.061Z" fill="#21395D" fill-opacity="0.25"/>
<path d="M2.94339 150.432L3.18555 201.021L53.492 200.781L53.2499 150.191L2.94339 150.432Z" fill="#21395D" fill-opacity="0.25"/>
<path d="M45.5713 175.52C45.5251 165.883 37.7197 158.109 28.1374 158.155C18.5551 158.2 10.8245 166.049 10.8706 175.686C10.9167 185.322 18.7221 193.097 28.3044 193.051C37.8868 193.005 45.6174 185.156 45.5713 175.52Z" fill="#EEE7DB" fill-opacity="0.2"/>
<path d="M22.2604 400.967C12.8839 410.487 7.10878 423.594 7.17806 438.066C7.3165 466.989 30.7458 490.319 59.5001 490.181L151.601 489.741L151.1 385.011L59.0056 385.452C44.6216 385.521 31.637 391.454 22.2605 400.974L22.2604 400.967ZM130.565 437.475C130.677 460.862 111.924 479.902 88.668 480.014C65.412 480.125 46.4776 461.265 46.3657 437.878C46.2537 414.491 65.0203 395.451 88.2627 395.34C111.505 395.229 130.453 414.088 130.565 437.475Z" fill="#21395D" fill-opacity="0.25"/>
<path d="M139.689 236.269L90.4482 236.505L91.1078 374.301L140.349 374.065L139.689 236.269Z" fill="#EEE7DB" fill-opacity="0.2"/>
<path d="M43.0608 691.901C43.0495 689.529 41.1287 687.616 38.7706 687.627C36.4125 687.639 34.5101 689.57 34.5214 691.942C34.5328 694.313 36.4536 696.226 38.8117 696.215C41.1698 696.204 43.0722 694.272 43.0608 691.901Z" fill="#EEE7DB" fill-opacity="0.2"/>
<path d="M42.9974 678.76C42.986 676.389 41.0652 674.475 38.7071 674.487C36.349 674.498 34.4466 676.43 34.458 678.801C34.4693 681.172 36.3901 683.086 38.7482 683.074C41.1063 683.063 43.0087 681.131 42.9974 678.76Z" fill="#EEE7DB" fill-opacity="0.2"/>
<path d="M42.9349 665.613C42.9235 663.241 41.0027 661.328 38.6446 661.339C36.2865 661.351 34.3841 663.282 34.3955 665.654C34.4068 668.025 36.3276 669.938 38.6857 669.927C41.0438 669.916 42.9462 667.984 42.9349 665.613Z" fill="#EEE7DB" fill-opacity="0.2"/>
<path d="M42.8724 652.472C42.861 650.101 40.9402 648.187 38.5821 648.199C36.224 648.21 34.3216 650.142 34.333 652.513C34.3443 654.884 36.2651 656.797 38.6232 656.786C40.9813 656.775 42.8837 654.843 42.8724 652.472Z" fill="#EEE7DB" fill-opacity="0.2"/>
<path d="M73.426 342.035C73.4042 337.48 69.7152 333.806 65.1865 333.828C60.6578 333.849 57.0042 337.559 57.026 342.113C57.0478 346.667 60.7367 350.342 65.2654 350.32C69.7942 350.298 73.4478 346.589 73.426 342.035Z" fill="#EEE7DB" fill-opacity="0.2"/>
<path d="M73.3059 316.777C73.2841 312.223 69.5951 308.549 65.0664 308.57C60.5376 308.592 56.884 312.302 56.9058 316.856C56.9276 321.41 60.6166 325.084 65.1453 325.063C69.6741 325.041 73.3277 321.332 73.3059 316.777Z" fill="#EEE7DB" fill-opacity="0.2"/>
<path d="M73.1848 291.52C73.163 286.965 69.474 283.291 64.9453 283.313C60.4165 283.334 56.7629 287.044 56.7847 291.598C56.8065 296.152 60.4955 299.827 65.0242 299.805C69.553 299.783 73.2066 296.074 73.1848 291.52Z" fill="#EEE7DB" fill-opacity="0.2"/>
<path d="M73.0637 266.255C73.0419 261.701 69.3529 258.027 64.8242 258.048C60.2954 258.07 56.6419 261.78 56.6637 266.334C56.6855 270.888 60.3744 274.563 64.9031 274.541C69.4319 274.519 73.0855 270.81 73.0637 266.255Z" fill="#EEE7DB" fill-opacity="0.2"/>
<path d="M80.3708 21.5254C67.9665 29.5718 59.786 43.612 59.8622 59.5378C59.9809 84.3379 80.0681 104.346 104.729 104.228C120.566 104.152 134.448 95.7912 142.331 83.2406C146.696 76.2567 149.209 67.9641 149.166 59.1035C149.047 34.2966 128.96 14.2957 104.299 14.4137C95.4747 14.456 87.2667 17.062 80.364 21.5186L80.3708 21.5254ZM146.023 59.1254C146.062 67.1122 143.864 74.5636 140.018 80.9375C132.772 92.9321 119.675 100.989 104.721 101.06C81.8246 101.17 63.1289 82.5411 63.0187 59.5227C62.9467 44.4843 70.8391 31.2373 82.7103 23.8488C89.0045 19.9071 96.3996 17.6258 104.328 17.5878C127.204 17.4783 145.92 36.1206 146.03 59.1253L146.023 59.1254Z" fill="#EEE7DB" fill-opacity="0.2"/>
<path d="M83.6517 24.7999C71.9964 31.9074 64.2517 44.8056 64.3221 59.5232C64.429 81.8452 82.5176 99.8626 104.715 99.7563C119.35 99.6863 132.101 91.7679 139.057 79.9862C142.686 73.8933 144.743 66.7634 144.707 59.1384C144.6 36.8163 126.525 18.8127 104.328 18.9189C96.7658 18.9551 89.6891 21.0915 83.6517 24.7999ZM141.55 59.1535C141.582 65.8842 139.827 72.214 136.731 77.6763C130.397 88.9021 118.425 96.5232 104.693 96.5889C84.2674 96.6867 67.5633 80.0485 67.465 59.5081C67.3989 45.6985 74.8622 33.5731 85.964 27.1098C91.3659 23.9438 97.643 22.1184 104.336 22.0864C124.761 21.9886 141.452 38.6131 141.55 59.1535Z" fill="#EEE7DB" fill-opacity="0.2"/>
<path d="M86.9396 28.0682C76.0537 34.2505 68.7313 46.0271 68.7958 59.5022C68.8908 79.3395 84.9673 95.3526 104.693 95.2582C118.08 95.1941 129.713 87.7249 135.79 76.7257C138.657 71.5306 140.278 65.5224 140.247 59.1534C140.152 39.3161 124.076 23.303 104.349 23.3974C98.023 23.4277 92.0778 25.1219 86.9396 28.0682ZM137.104 59.1753C137.131 64.6636 135.804 69.8376 133.444 74.3886C128.049 84.8384 117.196 92.0308 104.685 92.0907C86.7306 92.1767 72.0387 77.5428 71.9523 59.4871C71.892 46.8994 78.94 35.9228 89.2792 30.3985C93.7818 27.9808 98.9274 26.5977 104.371 26.5717C122.326 26.4857 137.018 41.1196 137.104 59.1753Z" fill="#EEE7DB" fill-opacity="0.2"/>
<path d="M90.2471 31.3631C80.1101 36.593 73.21 47.2411 73.2685 59.4739C73.3516 76.8333 87.416 90.8353 104.671 90.7527C116.836 90.6945 127.358 83.6539 132.461 73.4102C134.606 69.1402 135.798 64.3013 135.773 59.1747C135.69 41.8154 121.626 27.8065 104.37 27.8891C99.2861 27.9135 94.4928 29.1652 90.2471 31.3563L90.2471 31.3631ZM132.624 59.1898C132.644 63.4221 131.733 67.4269 130.08 71.0391C125.687 80.7538 115.945 87.5313 104.649 87.5854C89.1454 87.6596 76.486 75.0502 76.4114 59.4589C76.357 48.0999 83.0031 38.2448 92.6207 33.7274C96.1968 32.0309 100.17 31.0767 104.379 31.0566C119.883 30.9824 132.542 43.5917 132.617 59.183L132.624 59.1898Z" fill="#EEE7DB" fill-opacity="0.2"/>
<path d="M93.603 34.7055C84.2011 38.9283 77.6688 48.4347 77.7216 59.4524C77.7928 74.327 89.8383 86.3455 104.65 86.2746C115.613 86.2221 125.003 79.5622 129.091 70.0538C130.542 66.736 131.339 63.0527 131.32 59.1959C131.249 44.3213 119.183 32.303 104.392 32.3738C100.543 32.3922 96.8882 33.2289 93.603 34.7055ZM128.157 59.211C128.171 62.1736 127.649 65.0092 126.656 67.6285C123.332 76.6212 114.722 83.0588 104.635 83.1071C91.6017 83.1695 80.934 72.5507 80.8713 59.4373C80.8227 49.2934 87.1415 40.5731 96.038 37.1309C98.6331 36.1287 101.461 35.5553 104.407 35.5412C117.44 35.4789 128.094 46.0976 128.157 59.211Z" fill="#EEE7DB" fill-opacity="0.2"/>
<path d="M97.0615 38.15C88.3535 41.2568 82.1483 49.6216 82.1953 59.431C82.2547 71.8413 92.288 81.835 104.629 81.7759C114.383 81.7293 122.641 75.3957 125.647 66.6093C126.437 64.2982 126.86 61.7976 126.847 59.2173C126.788 46.8207 116.734 36.8134 104.414 36.8723C101.828 36.8847 99.3656 37.3334 97.0615 38.15ZM123.698 59.2324C123.706 60.898 123.496 62.5306 123.096 64.0821C121.005 72.3863 113.526 78.5659 104.614 78.6085C94.031 78.6592 85.3958 70.0445 85.3449 59.4159C85.302 50.453 91.3616 42.8739 99.6124 40.6909C101.151 40.2739 102.773 40.0477 104.429 40.0398C114.998 39.9892 123.647 48.6038 123.698 59.2324Z" fill="#EEE7DB" fill-opacity="0.2"/>
<path d="M100.704 41.785C92.6275 43.544 86.607 50.7747 86.6483 59.4169C86.6959 69.3423 94.7307 77.3523 104.607 77.3051C113.188 77.264 120.327 71.1406 122.005 63.0022C122.264 61.7858 122.387 60.536 122.381 59.2458C122.333 49.3203 114.299 41.3309 104.442 41.3781C103.166 41.3842 101.918 41.5198 100.711 41.7918L100.704 41.785ZM119.224 59.2609C119.226 59.5818 119.214 59.9027 119.202 60.2099C118.743 67.9329 112.385 74.0798 104.592 74.1171C96.7994 74.1544 89.8371 67.5592 89.798 59.4018C89.759 51.2443 95.8254 45.1124 103.507 44.5773C103.813 44.5622 104.132 44.5471 104.451 44.5455C112.562 44.5067 119.185 51.1035 119.224 59.2609Z" fill="#EEE7DB" fill-opacity="0.2"/>
<path d="M91.121 59.3881C91.1567 66.8356 97.1794 72.8346 104.585 72.7991C111.991 72.7637 117.956 66.7074 117.92 59.2598L117.919 58.9254C117.708 51.7449 111.931 45.9905 104.789 45.8472L104.456 45.8488C97.0504 45.8843 91.0854 51.9406 91.121 59.3881ZM113.656 54.6792C114.362 56.048 114.756 57.623 114.764 59.2749C114.791 64.9545 110.211 69.6048 104.563 69.6318C98.9156 69.6589 94.2911 65.0526 94.2639 59.3731C94.2367 53.6936 98.8169 49.0433 104.465 49.0163C106.107 49.0084 107.664 49.3969 109.045 50.0866C111.039 51.0669 112.655 52.6838 113.656 54.6792Z" fill="#EEE7DB" fill-opacity="0.2"/>
<path d="M95.5947 59.3666C95.6185 64.3294 99.6291 68.3242 104.564 68.3005C109.499 68.2769 113.471 64.2439 113.447 59.2812C113.424 54.3184 109.413 50.3237 104.478 50.3473C99.5431 50.371 95.571 54.4039 95.5947 59.3666ZM110.298 59.2962C110.313 62.5114 107.726 65.1179 104.549 65.1331C101.372 65.1483 98.7598 62.5599 98.7444 59.3515C98.729 56.1432 101.303 53.53 104.493 53.5147C107.684 53.4994 110.282 56.0879 110.298 59.2962Z" fill="#EEE7DB" fill-opacity="0.2"/>
<path d="M108.988 59.3097C108.976 56.829 106.967 54.8276 104.5 54.8394C102.033 54.8512 100.043 56.8718 100.055 59.3525C100.067 61.8332 102.076 63.8347 104.543 63.8229C107.01 63.8111 109 61.7904 108.988 59.3097Z" fill="#EEE7DB" fill-opacity="0.2"/>
<path d="M11.0612 700.375L107.336 796.27L11.5225 796.729L11.0612 700.375Z" fill="#21395D" fill-opacity="0.25"/>
<path d="M63.3499 514.533L21.2705 557.257L21.067 514.736L63.3499 514.533Z" fill="#21395D" fill-opacity="0.25"/>
<path d="M96.2654 151.296L96.5282 206.2L69.0952 178.882L96.2654 151.296Z" fill="#21395D" fill-opacity="0.25"/>
<path d="M149.752 89.2817L63.5281 0.296525L149.324 -0.114155L149.752 89.2817Z" fill="#21395D" fill-opacity="0.25"/>
<path d="M152.703 793.848C120.209 794.004 93.7374 767.637 93.581 734.959C93.4246 702.282 119.642 675.663 152.137 675.507L152.703 793.848Z" fill="#21395D" fill-opacity="0.25"/>
<path d="M80.6631 873.811C80.5719 854.765 95.8459 839.257 114.785 839.167C133.723 839.076 149.145 854.437 149.236 873.482L80.6631 873.811Z" fill="#EEE7DB" fill-opacity="0.2"/>
<path d="M153.114 720.782C102.412 720.704 61.0571 679.336 60.8126 628.275C60.5682 577.214 101.525 535.451 152.224 534.888L152.19 527.829C97.5342 528.412 53.5303 573.268 53.7938 628.308C54.0572 683.349 98.4885 727.781 153.148 727.841L153.114 720.782Z" fill="#EEE7DB" fill-opacity="0.2"/>
<path d="M153.066 710.782C107.849 710.677 70.975 673.772 70.757 628.227C70.539 582.682 107.051 545.425 152.272 544.888L152.238 537.83C103.073 538.386 63.5011 578.742 63.7381 628.26C63.9751 677.779 103.932 717.754 153.1 717.84L153.066 710.782Z" fill="#EEE7DB" fill-opacity="0.2"/>
<path d="M153.018 700.774C113.279 700.644 80.8931 668.209 80.7015 628.173C80.5098 588.136 112.584 555.393 152.32 554.882L152.286 547.824C108.613 548.354 73.4788 584.211 73.6893 628.2C73.8999 672.188 109.376 707.714 153.052 707.819L153.018 700.761L153.018 700.774Z" fill="#EEE7DB" fill-opacity="0.2"/>
<path d="M152.97 690.774C118.716 690.617 90.8178 662.646 90.6526 628.132C90.4874 593.618 118.123 565.374 152.367 564.896L152.333 557.838C114.152 558.341 83.4496 589.699 83.6337 628.165C83.8178 666.632 114.826 697.701 153.004 697.832L152.97 690.774Z" fill="#EEE7DB" fill-opacity="0.2"/>
<path d="M152.923 680.773C124.153 680.59 100.737 657.083 100.598 628.085C100.459 599.086 123.649 575.349 152.416 574.897L152.382 567.839C119.699 568.316 93.4213 595.174 93.579 628.118C93.7367 661.062 120.27 687.668 152.956 687.832L152.923 680.773Z" fill="#EEE7DB" fill-opacity="0.2"/>
<path d="M48.5698 345.165C25.7001 345.131 7.04488 326.468 6.93463 303.436C6.82438 280.404 25.3 261.563 48.1684 261.31L48.1532 258.129C23.4995 258.39 3.65254 278.623 3.77138 303.451C3.89023 328.278 23.93 348.32 48.585 348.346L48.5698 345.165Z" fill="#21395D" fill-opacity="0.25"/>
<path d="M48.5477 340.652C28.1488 340.607 11.5194 323.961 11.4211 303.414C11.3227 282.867 27.792 266.063 48.1895 265.822L48.1743 262.641C25.9983 262.891 8.15091 281.093 8.25783 303.429C8.36474 325.765 26.3856 343.796 48.5629 343.833L48.5477 340.652Z" fill="#21395D" fill-opacity="0.25"/>
<path d="M48.5266 336.14C30.6054 336.083 15.9949 321.448 15.9085 303.393C15.8221 285.337 30.2918 270.563 48.2116 270.334L48.1964 267.153C28.4981 267.391 12.6503 283.564 12.7452 303.408C12.8402 323.252 28.8421 339.272 48.5418 339.321L48.5266 336.14Z" fill="#21395D" fill-opacity="0.25"/>
<path d="M48.5045 331.628C33.0542 331.559 20.4695 318.942 20.3949 303.371C20.3204 287.8 32.7837 275.064 48.2327 274.847L48.2175 271.665C30.9968 271.891 17.1486 286.034 17.2317 303.386C17.3147 320.739 31.2977 334.748 48.5198 334.809L48.5045 331.628Z" fill="#21395D" fill-opacity="0.25"/>
<path d="M48.4834 327.122C35.5107 327.041 24.9449 316.436 24.8823 303.356C24.8197 290.277 35.2834 279.571 48.2548 279.366L48.2396 276.184C33.4965 276.398 21.6411 288.511 21.7123 303.372C21.7834 318.232 33.7474 330.231 48.4986 330.304L48.4834 327.122Z" fill="#21395D" fill-opacity="0.25"/>
<path d="M48.4622 322.61C37.9604 322.517 29.4204 313.929 29.3697 303.335C29.3189 292.74 37.7763 284.071 48.2768 283.878L48.2616 280.697C35.9962 280.899 26.1404 290.988 26.1997 303.357C26.2589 315.726 36.2107 325.72 48.4775 325.805L48.4623 322.624L48.4622 322.61Z" fill="#21395D" fill-opacity="0.25"/>
<path d="M48.4401 318.098C40.4091 317.993 33.8949 311.416 33.8561 303.313C33.8173 295.204 40.2751 288.572 48.2979 288.39L48.2827 285.209C38.495 285.399 30.6388 293.458 30.6861 303.335C30.7334 313.213 38.6663 321.196 48.4554 321.293L48.4402 318.112L48.4401 318.098Z" fill="#21395D" fill-opacity="0.25"/>
<path d="M48.419 313.579C42.8657 313.462 38.3637 308.91 38.3368 303.292C38.3099 297.674 42.7613 293.072 48.3201 292.909L48.3049 289.728C40.9948 289.906 35.1382 295.928 35.1736 303.314C35.2089 310.7 41.1229 316.665 48.4343 316.774L48.4191 313.593L48.419 313.579Z" fill="#21395D" fill-opacity="0.25"/>
<path d="M48.397 309.067C45.3145 308.938 42.8382 306.397 42.8232 303.264C42.8082 300.13 45.2601 297.566 48.3412 297.407L48.326 294.226C43.4935 294.393 39.6366 298.384 39.66 303.279C39.6834 308.173 43.5784 312.128 48.4122 312.248L48.397 309.067Z" fill="#21395D" fill-opacity="0.25"/>
<path d="M48.3471 298.739C45.9923 298.886 44.1349 300.854 44.1464 303.257C44.1579 305.66 46.034 307.61 48.3902 307.736L48.3471 298.739Z" fill="#21395D" fill-opacity="0.25"/>
<path d="M83.9355 373.42L83.2847 237.453" stroke="#21395D" stroke-opacity="0.25" stroke-width="8.55" stroke-miterlimit="10"/>
<path d="M-0.0687492 0.600757L0.494141 118.195L49.6919 117.96L49.129 0.365262L-0.0687492 0.600757Z" fill="#21395D" fill-opacity="0.25"/>
<path d="M39.5433 101.782C39.5319 99.4107 37.6111 97.4975 35.253 97.5088C32.8949 97.5201 30.9925 99.4515 31.0039 101.823C31.0152 104.194 32.936 106.108 35.2941 106.096C37.6522 106.085 39.5546 104.153 39.5433 101.782Z" fill="#EEE7DB" fill-opacity="0.2"/>
<path d="M39.4808 88.6409C39.4694 86.2695 37.5486 84.3564 35.1905 84.3677C32.8324 84.3789 30.93 86.3104 30.9414 88.6818C30.9527 91.0532 32.8735 92.9664 35.2316 92.9551C37.5897 92.9439 39.4921 91.0123 39.4808 88.6409Z" fill="#EEE7DB" fill-opacity="0.2"/>
<path d="M39.4183 75.5008C39.4069 73.1294 37.4861 71.2162 35.128 71.2275C32.7699 71.2388 30.8675 73.1703 30.8789 75.5417C30.8902 77.913 32.811 79.8263 35.1691 79.815C37.5272 79.8037 39.4296 77.8722 39.4183 75.5008Z" fill="#EEE7DB" fill-opacity="0.2"/>
<path d="M39.3548 62.3529C39.3434 59.9815 37.4226 58.0683 35.0645 58.0796C32.7064 58.0909 30.804 60.0224 30.8154 62.3938C30.8267 64.7652 32.7475 66.6783 35.1056 66.6671C37.4637 66.6558 39.3661 64.7243 39.3548 62.3529Z" fill="#EEE7DB" fill-opacity="0.2"/>
<path d="M4.03346 843.253L4.21484 881.146L68.6948 880.837L68.5135 842.944L4.03346 843.253Z" fill="#21395D" fill-opacity="0.25"/>
</g>
<defs>
<clipPath id="clip0_221_6148">
<rect width="860.97" height="135.982" fill="white" transform="translate(4.12109 861.611) rotate(-90.2743)"/>
</clipPath>
</defs>
</svg>
