<svg width="24" height="24" viewBox="0 0 24 24" fill="none" xmlns="http://www.w3.org/2000/svg">
<path d="M18.2829 22.249C17.0645 23.4251 15.7341 23.2394 14.4536 22.6823C13.0984 22.1128 11.8551 22.0881 10.4253 22.6823C8.63493 23.4498 7.69003 23.227 6.6208 22.249C0.553519 16.0222 1.44869 6.53956 8.33654 6.19294C10.015 6.27959 11.1837 7.10901 12.1659 7.18329C13.633 6.88618 15.0379 6.03201 16.6044 6.14342C18.4818 6.29197 19.8992 7.03474 20.8317 8.37171C16.9526 10.6867 17.8726 15.7746 21.4284 17.1982C20.7198 19.0551 19.7997 20.8997 18.2705 22.2614L18.2829 22.249ZM12.0416 6.11866C11.8551 3.35806 14.1054 1.08025 16.6915 0.857422C17.052 4.0513 13.7822 6.42815 12.0416 6.11866Z" fill="black"/>
</svg>
