<svg width="718" height="115" viewBox="0 0 718 115" fill="none" xmlns="http://www.w3.org/2000/svg">
<g clip-path="url(#clip0_174_1099)">
<path d="M281.26 33.8301L320.567 33.8301V-11.8793L281.26 -11.8793V33.8301Z" fill="white"/>
<path d="M657.413 -29.5928H610.647V24.7904H657.413V-29.5928Z" fill="white"/>
<path d="M634.033 16.3584C642.941 16.3584 650.162 7.9609 650.162 -2.39795C650.162 -12.7568 642.941 -21.1543 634.033 -21.1543C625.125 -21.1543 617.904 -12.7568 617.904 -2.39795C617.904 7.9609 625.125 16.3584 634.033 16.3584Z" fill="#EEE7DB"/>
<path d="M425.735 -10.0077C416.976 -20.1931 404.886 -26.5039 391.508 -26.5039C364.771 -26.5039 343.101 -1.29732 343.101 29.7871V129.351H439.914V29.7945C439.914 14.2449 434.487 0.177652 425.729 -10.0077H425.735ZM391.508 106.882C369.888 106.882 352.371 86.5111 352.371 61.3706C352.371 36.23 369.888 15.8593 391.508 15.8593C413.127 15.8593 430.644 36.2447 430.644 61.3706C430.644 86.4965 413.127 106.882 391.508 106.882Z" fill="white"/>
<path d="M577.461 117.787V64.5557L450.08 64.5557V117.787H577.461Z" fill="#EEE7DB"/>
<path d="M156.707 10.9726C158.899 10.9726 160.676 8.9061 160.676 6.35692C160.676 3.80773 158.899 1.74121 156.707 1.74121C154.514 1.74121 152.737 3.80773 152.737 6.35692C152.737 8.9061 154.514 10.9726 156.707 10.9726Z" fill="#EEE7DB"/>
<path d="M168.854 10.9726C171.046 10.9726 172.823 8.9061 172.823 6.35692C172.823 3.80773 171.046 1.74121 168.854 1.74121C166.662 1.74121 164.885 3.80773 164.885 6.35692C164.885 8.9061 166.662 10.9726 168.854 10.9726Z" fill="#EEE7DB"/>
<path d="M181.007 10.9726C183.199 10.9726 184.976 8.9061 184.976 6.35692C184.976 3.80773 183.199 1.74121 181.007 1.74121C178.815 1.74121 177.038 3.80773 177.038 6.35692C177.038 8.9061 178.815 10.9726 181.007 10.9726Z" fill="#EEE7DB"/>
<path d="M193.155 10.9726C195.347 10.9726 197.124 8.9061 197.124 6.35692C197.124 3.80773 195.347 1.74121 193.155 1.74121C190.963 1.74121 189.186 3.80773 189.186 6.35692C189.186 8.9061 190.963 10.9726 193.155 10.9726Z" fill="#EEE7DB"/>
<path d="M479.985 45.6079C484.195 45.6079 487.608 41.6391 487.608 36.7434C487.608 31.8477 484.195 27.8789 479.985 27.8789C475.775 27.8789 472.362 31.8477 472.362 36.7434C472.362 41.6391 475.775 45.6079 479.985 45.6079Z" fill="#EEE7DB"/>
<path d="M503.333 45.6079C507.543 45.6079 510.956 41.6391 510.956 36.7434C510.956 31.8477 507.543 27.8789 503.333 27.8789C499.123 27.8789 495.71 31.8477 495.71 36.7434C495.71 41.6391 499.123 45.6079 503.333 45.6079Z" fill="#EEE7DB"/>
<path d="M526.681 45.6079C530.892 45.6079 534.304 41.6391 534.304 36.7434C534.304 31.8477 530.892 27.8789 526.681 27.8789C522.471 27.8789 519.059 31.8477 519.059 36.7434C519.059 41.6391 522.471 45.6079 526.681 45.6079Z" fill="#EEE7DB"/>
<path d="M550.036 45.6079C554.246 45.6079 557.659 41.6391 557.659 36.7434C557.659 31.8477 554.246 27.8789 550.036 27.8789C545.826 27.8789 542.413 31.8477 542.413 36.7434C542.413 41.6391 545.826 45.6079 550.036 45.6079Z" fill="#EEE7DB"/>
<path d="M776.23 54.774C768.847 41.3231 755.905 32.4072 741.183 32.4072C718.257 32.4072 699.673 54.0181 699.673 80.6777C699.673 97.7976 707.34 112.848 718.907 121.434C725.344 126.189 732.998 128.948 741.189 128.948C764.121 128.948 782.698 107.337 782.698 80.6777C782.698 71.1381 780.326 62.2515 776.237 54.7666L776.23 54.774ZM741.183 125.551C733.8 125.551 726.921 123.136 721.046 118.946C709.991 111.05 702.601 96.851 702.601 80.685C702.601 55.9334 719.904 35.8195 741.183 35.8195C755.084 35.8195 767.295 44.4198 774.072 57.2909C777.688 64.1154 779.764 72.1214 779.764 80.6924C779.764 105.422 762.449 125.558 741.183 125.558V125.551Z" fill="#EEE7DB"/>
<path d="M773.189 58.3037C766.67 45.6674 754.782 37.2285 741.177 37.2285C720.542 37.2285 703.807 56.6893 703.807 80.6851C703.807 96.5062 711.07 110.331 721.93 117.912C727.546 121.867 734.128 124.127 741.177 124.127C761.811 124.127 778.534 104.681 778.534 80.6851C778.534 72.5104 776.59 64.8494 773.189 58.3037ZM741.177 120.715C734.955 120.715 729.111 118.785 724.076 115.409C713.727 108.504 706.735 95.5229 706.735 80.6778C706.735 58.5973 722.189 40.6261 741.177 40.6261C753.942 40.6261 765.118 48.7568 771.043 60.7914C773.946 66.6472 775.606 73.4424 775.606 80.6778C775.606 102.758 760.164 120.715 741.177 120.715Z" fill="#EEE7DB"/>
<path d="M770.154 61.8408C764.487 50.041 753.633 42.0645 741.177 42.0645C722.839 42.0645 707.965 59.3605 707.965 80.6852C707.965 95.1561 714.818 107.77 724.959 114.397C729.749 117.523 735.295 119.306 741.183 119.306C759.521 119.306 774.394 102.01 774.394 80.6852C774.394 73.846 772.855 67.4105 770.154 61.8408ZM741.177 115.908C736.103 115.908 731.326 114.448 727.13 111.872C717.494 105.987 710.893 94.2168 710.893 80.6926C710.893 61.2831 724.486 45.4767 741.177 45.4767C752.813 45.4767 762.928 53.1524 767.989 64.3578C770.204 69.2377 771.46 74.8073 771.46 80.6926C771.46 100.102 757.868 115.908 741.177 115.908Z" fill="#EEE7DB"/>
<path d="M767.093 65.3999C762.303 54.4147 752.491 46.9004 741.183 46.9004C725.136 46.9004 712.13 62.0317 712.13 80.6853C712.13 93.8353 718.592 105.246 728.038 110.816C731.976 113.157 736.444 114.47 741.183 114.47C757.23 114.47 770.242 99.3389 770.242 80.6853C770.242 75.189 769.106 70.0009 767.099 65.3999H767.093ZM741.183 111.065C737.27 111.065 733.572 110.06 730.241 108.255C721.28 103.456 715.058 92.8887 715.058 80.678C715.058 63.9176 726.77 50.298 741.183 50.298C751.683 50.298 760.764 57.5334 764.897 67.9536C766.449 71.8281 767.314 76.1283 767.314 80.678C767.314 97.4383 755.602 111.058 741.189 111.058L741.183 111.065Z" fill="#EEE7DB"/>
<path d="M763.988 69.0099C760.126 58.8245 751.368 51.7139 741.183 51.7139C727.433 51.7139 716.27 64.6731 716.27 80.6849C716.27 92.5361 722.384 102.721 731.156 107.19C734.216 108.775 737.617 109.656 741.183 109.656C754.933 109.656 766.096 96.6748 766.096 80.6849C766.096 76.5242 765.339 72.5689 763.988 69.0099ZM741.183 106.236C738.444 106.236 735.825 105.657 733.408 104.571C725.11 100.931 719.198 91.5894 719.198 80.6849C719.198 66.5957 729.061 55.1188 741.183 55.1188C750.56 55.1188 758.593 61.9946 761.736 71.6296C762.651 74.4402 763.168 77.5002 763.168 80.6849C763.168 94.7742 753.305 106.236 741.183 106.236Z" fill="#EEE7DB"/>
<path d="M149.014 -23.6641L59.9434 79.9141V-23.6641H149.014Z" fill="white"/>
<path d="M320.573 33.8237L281.266 -11.8857H320.573V33.8237Z" fill="white"/>
<path d="M656.201 71.2846H605.447L630.821 41.7705L656.201 71.2846Z" fill="white"/>
<path d="M712.099 129.352L791.735 36.7441V129.352H712.099Z" fill="white"/>
<path d="M61.9819 128.97C61.9819 93.8427 86.4724 65.3633 116.68 65.3633C146.888 65.3633 171.378 93.8427 171.378 128.97H61.9819Z" fill="white"/>
<path d="M662.695 83.2676C662.695 103.741 648.427 120.333 630.821 120.333C613.215 120.333 598.948 103.741 598.948 83.2676H662.695Z" fill="#EEE7DB"/>
<path d="M-11.6157 50.6797C5.99013 50.6797 20.2578 67.2713 20.2578 87.7447C20.2578 108.218 5.99013 124.81 -11.6157 124.81V50.6797Z" fill="#EEE7DB"/>
<path d="M129.521 129.792C129.818 74.9832 168.242 30.492 215.443 30.492C262.644 30.492 301.068 74.9832 301.365 129.792H307.89C307.593 70.7051 266.323 22.9043 215.443 22.9043C164.563 22.9043 123.293 70.7051 122.997 129.792H129.521Z" fill="#EEE7DB"/>
<path d="M138.766 129.792C139.063 80.9121 173.34 41.242 215.443 41.242C257.546 41.242 291.823 80.9047 292.12 129.792H298.645C298.348 76.6413 261.218 33.6543 215.443 33.6543C169.668 33.6543 132.538 76.6413 132.241 129.792H138.766Z" fill="#EEE7DB"/>
<path d="M148.017 129.792C148.314 86.834 178.439 51.9924 215.449 51.9924C252.46 51.9924 282.585 86.834 282.882 129.792H289.407C289.11 82.5779 256.12 44.4121 215.456 44.4121C174.792 44.4121 141.795 82.5779 141.505 129.792H148.03H148.017Z" fill="#EEE7DB"/>
<path d="M157.262 129.792C157.558 92.7638 183.538 62.7507 215.443 62.7507C247.348 62.7507 273.334 92.7712 273.624 129.792H280.149C279.853 88.515 251.002 55.1631 215.443 55.1631C179.884 55.1631 151.027 88.5224 150.737 129.792H157.262Z" fill="#EEE7DB"/>
<path d="M166.506 129.792C166.803 98.6927 188.637 73.5008 215.443 73.5008C242.249 73.5008 264.089 98.6927 264.38 129.792H270.905C270.608 94.4585 245.897 65.9131 215.443 65.9131C184.989 65.9131 160.278 94.4585 159.981 129.792H166.506Z" fill="#EEE7DB"/>
<path d="M175.751 129.792C176.048 104.622 193.729 84.2517 215.443 84.2517C237.157 84.2517 254.838 104.622 255.135 129.792H261.66C261.37 100.396 240.792 76.6641 215.443 76.6641C190.094 76.6641 169.523 100.396 169.226 129.792H175.751Z" fill="#EEE7DB"/>
<path d="M184.996 129.792C185.286 110.551 198.828 95.0017 215.443 95.0017C232.058 95.0017 245.594 110.551 245.89 129.792H252.415C252.125 106.332 235.687 87.4141 215.443 87.4141C195.199 87.4141 178.767 106.332 178.471 129.792H184.996Z" fill="#EEE7DB"/>
<path d="M194.259 129.792C194.55 116.481 203.933 105.752 215.443 105.752C226.953 105.752 236.337 116.481 236.627 129.792H243.152C242.862 112.276 230.575 98.1719 215.443 98.1719C200.311 98.1719 188.025 112.276 187.734 129.792H194.259Z" fill="#EEE7DB"/>
<path d="M203.504 129.792C203.794 122.409 209.032 116.51 215.443 116.51C221.854 116.51 227.098 122.417 227.382 129.792H233.907C233.617 118.212 225.47 108.922 215.443 108.922C205.416 108.922 197.269 118.212 196.979 129.792H203.504Z" fill="#EEE7DB"/>
<path d="M477.202 18.7215C477.335 -6.00077 494.669 -26.0707 515.96 -26.0707C537.252 -26.0707 554.586 -6.00077 554.719 18.7215H557.659C557.527 -7.93071 538.911 -29.4902 515.96 -29.4902C493.01 -29.4902 474.394 -7.93071 474.262 18.7215H477.202Z" fill="white"/>
<path d="M481.374 18.7216C481.506 -3.32962 496.967 -21.2201 515.961 -21.2201C534.955 -21.2201 550.415 -3.32962 550.548 18.7216H553.488C553.356 -5.25221 536.608 -24.6396 515.961 -24.6396C495.313 -24.6396 478.566 -5.25221 478.433 18.7216H481.374Z" fill="white"/>
<path d="M485.545 18.7216C485.677 -0.651129 499.27 -16.3695 515.96 -16.3695C532.651 -16.3695 546.244 -0.651129 546.376 18.7216H549.317C549.184 -2.57373 534.305 -19.7891 515.96 -19.7891C497.616 -19.7891 482.737 -2.57373 482.604 18.7216H485.545Z" fill="white"/>
<path d="M489.716 18.7217C489.849 2.02002 501.567 -11.5189 515.961 -11.5189C530.355 -11.5189 542.073 2.02002 542.205 18.7217H545.146C545.014 0.104761 532.002 -14.9385 515.961 -14.9385C499.92 -14.9385 486.908 0.104761 486.775 18.7217H489.716Z" fill="white"/>
<path d="M493.881 18.7213C494.013 4.69804 503.864 -6.66878 515.954 -6.66878C528.045 -6.66878 537.895 4.69804 538.028 18.7213H540.968C540.836 2.78278 529.692 -10.0957 515.954 -10.0957C502.217 -10.0957 491.072 2.77544 490.94 18.7213H493.881Z" fill="white"/>
<path d="M498.052 18.7213C498.184 7.36919 506.161 -1.81819 515.954 -1.81819C525.748 -1.81819 533.724 7.36919 533.857 18.7213H536.797C536.665 5.46127 527.382 -5.24512 515.948 -5.24512C504.514 -5.24512 495.231 5.46127 495.099 18.7213H498.039H498.052Z" fill="white"/>
<path d="M502.223 18.7214C502.355 10.0403 508.464 3.03239 515.954 3.03239C523.451 3.03239 529.553 10.0477 529.685 18.7214H532.626C532.493 8.13976 525.079 -0.394531 515.948 -0.394531C506.817 -0.394531 499.402 8.13976 499.27 18.7214H502.21H502.223Z" fill="white"/>
<path d="M506.401 18.7214C506.533 12.7188 510.761 7.87564 515.954 7.87564C521.148 7.87564 525.382 12.7115 525.508 18.7214H528.449C528.316 10.8182 522.776 4.45605 515.948 4.45605C509.12 4.45605 503.58 10.8182 503.447 18.7214H506.388H506.401Z" fill="white"/>
<path d="M510.571 18.7215C510.704 15.39 513.064 12.7262 515.961 12.7262C518.857 12.7262 521.217 15.39 521.35 18.7215H524.29C524.158 13.4967 520.485 9.30664 515.961 9.30664C511.436 9.30664 507.763 13.4967 507.631 18.7215H510.571Z" fill="white"/>
<path d="M520.119 18.7216C519.993 16.1752 518.182 14.1572 515.96 14.1572C513.739 14.1572 511.928 16.1752 511.802 18.7216H520.119Z" fill="white"/>
<path d="M450.926 56.8066H576.615" stroke="white" stroke-width="8.55" stroke-miterlimit="10"/>
<path d="M792 -32H687.223V21.231H792V-32Z" fill="white"/>
<path d="M702.223 10.2236C704.415 10.2236 706.192 8.15708 706.192 5.60789C706.192 3.05871 704.415 0.992188 702.223 0.992188C700.031 0.992188 698.253 3.05871 698.253 5.60789C698.253 8.15708 700.031 10.2236 702.223 10.2236Z" fill="#EEE7DB"/>
<path d="M714.37 10.2236C716.562 10.2236 718.339 8.15708 718.339 5.60789C718.339 3.05871 716.562 0.992188 714.37 0.992188C712.178 0.992188 710.401 3.05871 710.401 5.60789C710.401 8.15708 712.178 10.2236 714.37 10.2236Z" fill="#EEE7DB"/>
<path d="M16.9701 -32H-18.0586V37.7052H16.9701V-32Z" fill="white"/>
</g>
<defs>
<clipPath id="clip0_174_1099">
<rect width="792" height="147" fill="white" transform="translate(0 -32)"/>
</clipPath>
</defs>
</svg>
