<svg width="718" height="147" viewBox="0 0 718 147" fill="none" xmlns="http://www.w3.org/2000/svg">
<g clip-path="url(#clip0_34_1765)">
<path d="M276.288 65.8301H314.9V20.1207L276.288 20.1207V65.8301Z" fill="white"/>
<path d="M645.792 2.40723H599.853V56.7904H645.792V2.40723Z" fill="white"/>
<path d="M622.826 48.3584C631.576 48.3584 638.67 39.9609 638.67 29.6021C638.67 19.2432 631.576 10.8457 622.826 10.8457C614.075 10.8457 606.981 19.2432 606.981 29.6021C606.981 39.9609 614.075 48.3584 622.826 48.3584Z" fill="#EEE7DB"/>
<path d="M418.209 21.9923C409.605 11.8069 397.729 5.49609 384.587 5.49609C358.323 5.49609 337.036 30.7027 337.036 61.7871V161.351H432.138V61.7945C432.138 46.2449 426.807 32.1777 418.203 21.9923H418.209ZM384.587 138.882C363.35 138.882 346.142 118.511 346.142 93.3706C346.142 68.23 363.35 47.8593 384.587 47.8593C405.824 47.8593 423.032 68.2447 423.032 93.3706C423.032 118.496 405.824 138.882 384.587 138.882Z" fill="white"/>
<path d="M567.253 149.787V96.5557L442.125 96.5557V149.787H567.253Z" fill="#EEE7DB"/>
<path d="M153.936 42.9726C156.09 42.9726 157.835 40.9061 157.835 38.3569C157.835 35.8077 156.09 33.7412 153.936 33.7412C151.783 33.7412 150.037 35.8077 150.037 38.3569C150.037 40.9061 151.783 42.9726 153.936 42.9726Z" fill="#EEE7DB"/>
<path d="M165.869 42.9726C168.022 42.9726 169.768 40.9061 169.768 38.3569C169.768 35.8077 168.022 33.7412 165.869 33.7412C163.715 33.7412 161.97 35.8077 161.97 38.3569C161.97 40.9061 163.715 42.9726 165.869 42.9726Z" fill="#EEE7DB"/>
<path d="M177.808 42.9726C179.961 42.9726 181.707 40.9061 181.707 38.3569C181.707 35.8077 179.961 33.7412 177.808 33.7412C175.654 33.7412 173.909 35.8077 173.909 38.3569C173.909 40.9061 175.654 42.9726 177.808 42.9726Z" fill="#EEE7DB"/>
<path d="M189.74 42.9726C191.894 42.9726 193.639 40.9061 193.639 38.3569C193.639 35.8077 191.894 33.7412 189.74 33.7412C187.587 33.7412 185.841 35.8077 185.841 38.3569C185.841 40.9061 187.587 42.9726 189.74 42.9726Z" fill="#EEE7DB"/>
<path d="M471.5 77.6079C475.636 77.6079 478.989 73.6391 478.989 68.7434C478.989 63.8477 475.636 59.8789 471.5 59.8789C467.365 59.8789 464.012 63.8477 464.012 68.7434C464.012 73.6391 467.365 77.6079 471.5 77.6079Z" fill="#EEE7DB"/>
<path d="M494.436 77.6079C498.571 77.6079 501.924 73.6391 501.924 68.7434C501.924 63.8477 498.571 59.8789 494.436 59.8789C490.3 59.8789 486.948 63.8477 486.948 68.7434C486.948 73.6391 490.3 77.6079 494.436 77.6079Z" fill="#EEE7DB"/>
<path d="M517.371 77.6079C521.507 77.6079 524.86 73.6391 524.86 68.7434C524.86 63.8477 521.507 59.8789 517.371 59.8789C513.236 59.8789 509.883 63.8477 509.883 68.7434C509.883 73.6391 513.236 77.6079 517.371 77.6079Z" fill="#EEE7DB"/>
<path d="M540.313 77.6079C544.449 77.6079 547.802 73.6391 547.802 68.7434C547.802 63.8477 544.449 59.8789 540.313 59.8789C536.178 59.8789 532.825 63.8477 532.825 68.7434C532.825 73.6391 536.178 77.6079 540.313 77.6079Z" fill="#EEE7DB"/>
<path d="M762.509 86.774C755.257 73.3231 742.543 64.4072 728.081 64.4072C705.561 64.4072 687.306 86.0181 687.306 112.678C687.306 129.798 694.837 144.848 706.2 153.434C712.522 158.189 720.042 160.948 728.088 160.948C750.614 160.948 768.863 139.337 768.863 112.678C768.863 103.138 766.532 94.2515 762.516 86.7666L762.509 86.774ZM728.081 157.551C720.829 157.551 714.072 155.136 708.301 150.946C697.441 143.05 690.182 128.851 690.182 112.685C690.182 87.9334 707.179 67.8195 728.081 67.8195C741.737 67.8195 753.732 76.4198 760.389 89.2909C763.941 96.1154 765.981 104.121 765.981 112.692C765.981 137.422 748.971 157.558 728.081 157.558V157.551Z" fill="#EEE7DB"/>
<path d="M759.522 90.3037C753.118 77.6674 741.44 69.2285 728.075 69.2285C707.805 69.2285 691.366 88.6893 691.366 112.685C691.366 128.506 698.501 142.331 709.169 149.912C714.686 153.867 721.151 156.127 728.075 156.127C748.345 156.127 764.772 136.681 764.772 112.685C764.772 104.51 762.863 96.8494 759.522 90.3037ZM728.075 152.715C721.963 152.715 716.223 150.785 711.276 147.409C701.11 140.504 694.242 127.523 694.242 112.678C694.242 90.5973 709.423 72.6261 728.075 72.6261C740.615 72.6261 751.593 80.7568 757.414 92.7914C760.265 98.6472 761.896 105.442 761.896 112.678C761.896 134.758 746.727 152.715 728.075 152.715Z" fill="#EEE7DB"/>
<path d="M756.54 93.8408C750.973 82.041 740.311 74.0645 728.075 74.0645C710.061 74.0645 695.451 91.3605 695.451 112.685C695.451 127.156 702.183 139.77 712.144 146.397C716.849 149.523 722.298 151.306 728.081 151.306C746.095 151.306 760.705 134.01 760.705 112.685C760.705 105.846 759.193 99.4105 756.54 93.8408ZM728.075 147.908C723.091 147.908 718.399 146.448 714.276 143.872C704.811 137.987 698.327 126.217 698.327 112.693C698.327 93.2831 711.679 77.4767 728.075 77.4767C739.506 77.4767 749.442 85.1524 754.414 96.3578C756.589 101.238 757.823 106.807 757.823 112.693C757.823 132.102 744.471 147.908 728.075 147.908Z" fill="#EEE7DB"/>
<path d="M753.533 97.3999C748.829 86.4147 739.19 78.9004 728.081 78.9004C712.318 78.9004 699.542 94.0317 699.542 112.685C699.542 125.835 705.89 137.246 715.169 142.816C719.037 145.157 723.426 146.47 728.081 146.47C743.845 146.47 756.627 131.339 756.627 112.685C756.627 107.189 755.511 102.001 753.54 97.3999H753.533ZM728.081 143.065C724.238 143.065 720.605 142.06 717.333 140.255C708.53 135.456 702.418 124.889 702.418 112.678C702.418 95.9176 713.923 82.298 728.081 82.298C738.396 82.298 747.316 89.5334 751.376 99.9536C752.901 103.828 753.75 108.128 753.75 112.678C753.75 129.438 742.246 143.058 728.087 143.058L728.081 143.065Z" fill="#EEE7DB"/>
<path d="M750.484 101.01C746.69 90.8245 738.086 83.7139 728.081 83.7139C714.574 83.7139 703.608 96.6731 703.608 112.685C703.608 124.536 709.615 134.721 718.231 139.19C721.238 140.775 724.579 141.656 728.081 141.656C741.588 141.656 752.554 128.675 752.554 112.685C752.554 108.524 751.81 104.569 750.484 101.01ZM728.081 138.236C725.391 138.236 722.818 137.657 720.444 136.571C712.293 132.931 706.485 123.589 706.485 112.685C706.485 98.5957 716.173 87.1188 728.081 87.1188C737.293 87.1188 745.184 93.9946 748.271 103.63C749.17 106.44 749.678 109.5 749.678 112.685C749.678 126.774 739.989 138.236 728.081 138.236Z" fill="#EEE7DB"/>
<path d="M747.341 104.73C744.558 95.3009 736.989 88.5498 728.081 88.5498C716.812 88.5498 707.693 99.3442 707.693 112.685C707.693 123.23 713.409 132.19 721.374 135.485C723.469 136.351 725.738 136.82 728.081 136.82C739.338 136.82 748.469 126.004 748.469 112.685C748.469 109.889 748.072 107.225 747.341 104.73ZM728.081 133.415C726.569 133.415 725.087 133.181 723.68 132.74C716.148 130.436 710.57 122.32 710.57 112.685C710.57 101.245 718.43 91.9547 728.081 91.9547C736.22 91.9547 743.076 98.5444 745.022 107.475C745.394 109.141 745.593 110.895 745.593 112.685C745.593 124.111 737.733 133.415 728.081 133.415Z" fill="#EEE7DB"/>
<path d="M744.024 108.649C742.462 99.9089 735.923 93.3633 728.075 93.3633C719.062 93.3633 711.753 102.008 711.753 112.685C711.753 121.96 717.283 129.709 724.666 131.566C725.769 131.852 726.903 131.991 728.075 131.991C737.088 131.991 744.378 123.347 744.378 112.692C744.378 111.312 744.26 109.962 744.018 108.656L744.024 108.649ZM728.075 128.579C727.784 128.579 727.492 128.564 727.213 128.55C720.202 128.014 714.648 121.109 714.648 112.685C714.648 104.26 720.667 96.7682 728.075 96.7682C735.482 96.7682 741.024 103.358 741.477 111.665C741.489 111.995 741.501 112.34 741.501 112.685C741.501 121.454 735.482 128.579 728.075 128.579Z" fill="#EEE7DB"/>
<path d="M728.081 98.1992C721.318 98.1992 715.845 104.679 715.845 112.685C715.845 120.691 721.318 127.17 728.081 127.17H728.385C734.906 126.979 740.156 120.764 740.318 113.044V112.685C740.318 104.679 734.844 98.1992 728.081 98.1992ZM732.259 122.584C731.013 123.34 729.581 123.758 728.081 123.758C722.924 123.758 718.721 118.783 718.721 112.677C718.721 106.572 722.924 101.597 728.081 101.597C733.239 101.597 737.441 106.572 737.441 112.677C737.441 114.453 737.082 116.134 736.45 117.623C735.551 119.773 734.075 121.513 732.259 122.584Z" fill="#EEE7DB"/>
<path d="M146.38 8.33594L58.8838 111.914V8.33594H146.38Z" fill="white"/>
<path d="M314.907 65.8237L276.294 20.1143H314.907V65.8237Z" fill="white"/>
<path d="M644.602 103.285H594.745L619.67 73.7705L644.602 103.285Z" fill="white"/>
<path d="M699.511 161.352L777.74 68.7441V161.352H699.511Z" fill="white"/>
<path d="M60.8862 160.97C60.8862 125.843 84.9438 97.3633 114.617 97.3633C144.291 97.3633 168.349 125.843 168.349 160.97H60.8862Z" fill="white"/>
<path d="M650.981 115.268C650.981 135.741 636.965 152.333 619.67 152.333C602.376 152.333 588.36 135.741 588.36 115.268H650.981Z" fill="#EEE7DB"/>
<path d="M-11.4106 82.6797C5.884 82.6797 19.8995 99.2713 19.8995 119.745C19.8995 140.218 5.884 156.81 -11.4106 156.81V82.6797Z" fill="#EEE7DB"/>
<path d="M127.232 161.792C127.523 106.983 165.268 62.492 211.635 62.492C258.002 62.492 295.746 106.983 296.037 161.792H302.447C302.156 102.705 261.616 54.9043 211.635 54.9043C161.654 54.9043 121.114 102.705 120.822 161.792H127.232Z" fill="#EEE7DB"/>
<path d="M136.313 161.792C136.604 112.912 170.276 73.242 211.634 73.242C252.993 73.242 286.665 112.905 286.956 161.792H293.366C293.074 108.641 256.601 65.6543 211.634 65.6543C166.668 65.6543 130.195 108.641 129.903 161.792H136.313Z" fill="#EEE7DB"/>
<path d="M145.401 161.792C145.692 118.834 175.285 83.9924 211.641 83.9924C247.997 83.9924 277.59 118.834 277.881 161.792H284.291C283.999 114.578 251.592 76.4121 211.647 76.4121C171.702 76.4121 139.289 114.578 139.003 161.792H145.413H145.401Z" fill="#EEE7DB"/>
<path d="M154.482 161.792C154.773 124.764 180.294 94.7507 211.635 94.7507C242.976 94.7507 268.502 124.771 268.788 161.792H275.197C274.906 120.515 246.565 87.1631 211.635 87.1631C176.705 87.1631 148.357 120.522 148.072 161.792H154.482Z" fill="#EEE7DB"/>
<path d="M163.563 161.792C163.854 130.693 185.302 105.501 211.635 105.501C237.967 105.501 259.421 130.693 259.706 161.792H266.116C265.824 126.459 241.55 97.9131 211.635 97.9131C181.719 97.9131 157.445 126.459 157.153 161.792H163.563Z" fill="#EEE7DB"/>
<path d="M172.644 161.792C172.936 136.622 190.305 116.252 211.635 116.252C232.965 116.252 250.334 136.622 250.625 161.792H257.035C256.75 132.396 236.535 108.664 211.635 108.664C186.734 108.664 166.526 132.396 166.235 161.792H172.644Z" fill="#EEE7DB"/>
<path d="M181.725 161.792C182.011 142.551 195.313 127.002 211.635 127.002C227.956 127.002 241.253 142.551 241.544 161.792H247.953C247.668 138.332 231.52 119.414 211.635 119.414C191.749 119.414 175.607 138.332 175.316 161.792H181.725Z" fill="#EEE7DB"/>
<path d="M190.825 161.792C191.11 148.481 200.328 137.752 211.634 137.752C222.941 137.752 232.159 148.481 232.444 161.792H238.853C238.568 144.276 226.499 130.172 211.634 130.172C196.77 130.172 184.701 144.276 184.416 161.792H190.825Z" fill="#EEE7DB"/>
<path d="M199.907 161.792C200.192 154.409 205.337 148.51 211.635 148.51C217.933 148.51 223.084 154.417 223.363 161.792H229.772C229.487 150.212 221.485 140.922 211.635 140.922C201.785 140.922 193.782 150.212 193.497 161.792H199.907Z" fill="#EEE7DB"/>
<path d="M468.767 50.7215C468.897 25.9992 485.925 5.92935 506.84 5.92935C527.755 5.92935 544.783 25.9992 544.913 50.7215H547.802C547.672 24.0693 529.385 2.50977 506.84 2.50977C484.295 2.50977 466.009 24.0693 465.878 50.7215H468.767Z" fill="white"/>
<path d="M472.865 50.7216C472.995 28.6704 488.182 10.7799 506.84 10.7799C525.499 10.7799 540.686 28.6704 540.816 50.7216H543.705C543.574 26.7478 527.123 7.36035 506.84 7.36035C486.558 7.36035 470.106 26.7478 469.976 50.7216H472.865Z" fill="white"/>
<path d="M476.962 50.7216C477.092 31.3489 490.444 15.6305 506.84 15.6305C523.236 15.6305 536.588 31.3489 536.718 50.7216H539.607C539.477 29.4263 524.86 12.2109 506.84 12.2109C488.82 12.2109 474.203 29.4263 474.073 50.7216H476.962Z" fill="white"/>
<path d="M481.06 50.7217C481.19 34.02 492.701 20.4811 506.84 20.4811C520.98 20.4811 532.491 34.02 532.621 50.7217H535.51C535.38 32.1048 522.598 17.0615 506.84 17.0615C491.083 17.0615 478.301 32.1048 478.171 50.7217H481.06Z" fill="white"/>
<path d="M485.15 50.7213C485.281 36.698 494.957 25.3312 506.834 25.3312C518.711 25.3312 528.387 36.698 528.517 50.7213H531.406C531.276 34.7828 520.329 21.9043 506.834 21.9043C493.339 21.9043 482.392 34.7754 482.262 50.7213H485.15Z" fill="white"/>
<path d="M489.248 50.7213C489.378 39.3692 497.213 30.1818 506.834 30.1818C516.454 30.1818 524.29 39.3692 524.42 50.7213H527.308C527.178 37.4613 518.06 26.7549 506.827 26.7549C495.595 26.7549 486.477 37.4613 486.347 50.7213H489.235H489.248Z" fill="white"/>
<path d="M493.345 50.7214C493.476 42.0403 499.476 35.0324 506.834 35.0324C514.198 35.0324 520.192 42.0477 520.323 50.7214H523.211C523.081 40.1398 515.797 31.6055 506.828 31.6055C497.858 31.6055 490.575 40.1398 490.444 50.7214H493.333H493.345Z" fill="white"/>
<path d="M497.449 50.7214C497.579 44.7188 501.732 39.8756 506.834 39.8756C511.935 39.8756 516.095 44.7115 516.219 50.7214H519.107C518.977 42.8182 513.535 36.4561 506.828 36.4561C500.121 36.4561 494.678 42.8182 494.548 50.7214H497.437H497.449Z" fill="white"/>
<path d="M501.546 50.7215C501.677 47.39 503.995 44.7262 506.84 44.7262C509.685 44.7262 512.004 47.39 512.134 50.7215H515.023C514.892 45.4967 511.285 41.3066 506.84 41.3066C502.396 41.3066 498.788 45.4967 498.658 50.7215H501.546Z" fill="white"/>
<path d="M510.925 50.7216C510.801 48.1752 509.022 46.1572 506.84 46.1572C504.658 46.1572 502.879 48.1752 502.755 50.7216H510.925Z" fill="white"/>
<path d="M442.955 88.8066H566.423" stroke="white" stroke-width="8.55" stroke-miterlimit="10"/>
<path d="M778 0H675.075V53.231H778V0Z" fill="white"/>
<path d="M689.81 42.2236C691.963 42.2236 693.709 40.1571 693.709 37.6079C693.709 35.0587 691.963 32.9922 689.81 32.9922C687.656 32.9922 685.911 35.0587 685.911 37.6079C685.911 40.1571 687.656 42.2236 689.81 42.2236Z" fill="#EEE7DB"/>
<path d="M701.742 42.2236C703.896 42.2236 705.641 40.1571 705.641 37.6079C705.641 35.0587 703.896 32.9922 701.742 32.9922C699.589 32.9922 697.843 35.0587 697.843 37.6079C697.843 40.1571 699.589 42.2236 701.742 42.2236Z" fill="#EEE7DB"/>
<path d="M713.675 42.2236C715.828 42.2236 717.574 40.1571 717.574 37.6079C717.574 35.0587 715.828 32.9922 713.675 32.9922C711.522 32.9922 709.776 35.0587 709.776 37.6079C709.776 40.1571 711.522 42.2236 713.675 42.2236Z" fill="#EEE7DB"/>
<path d="M16.6703 0H-17.7393V69.7052H16.6703V0Z" fill="white"/>
</g>
<defs>
<clipPath id="clip0_34_1765">
<rect width="778" height="147" fill="white"/>
</clipPath>
</defs>
</svg>
