<svg width="19" height="19" viewBox="0 0 19 19" fill="none" xmlns="http://www.w3.org/2000/svg">
<path fill-rule="evenodd" clip-rule="evenodd" d="M3.59375 8.29812V6.5C3.59375 4.93356 4.21601 3.43129 5.32365 2.32365C6.43129 1.21601 7.93356 0.59375 9.5 0.59375C11.0664 0.59375 12.5687 1.21601 13.6763 2.32365C14.784 3.43129 15.4062 4.93356 15.4062 6.5V8.29812C16.3819 8.37075 17.0162 8.5545 17.4809 9.01912C18.25 9.78737 18.25 11.0255 18.25 13.5C18.25 15.9745 18.25 17.2126 17.4809 17.9809C16.7126 18.75 15.4745 18.75 13 18.75H6C3.5255 18.75 2.28737 18.75 1.51912 17.9809C0.75 17.2126 0.75 15.9745 0.75 13.5C0.75 11.0255 0.75 9.78737 1.51912 9.01912C1.98287 8.5545 2.61812 8.37075 3.59375 8.29812ZM4.90625 6.5C4.90625 5.28166 5.39023 4.11322 6.25173 3.25173C7.11322 2.39023 8.28166 1.90625 9.5 1.90625C10.7183 1.90625 11.8868 2.39023 12.7483 3.25173C13.6098 4.11322 14.0937 5.28166 14.0937 6.5V8.2535C13.7589 8.25058 13.3943 8.24942 13 8.25H6C5.60508 8.24942 5.2405 8.25058 4.90625 8.2535V6.5Z" fill="#21395D"/>
</svg>
