<svg width="33" height="32" viewBox="0 0 33 32" fill="none" xmlns="http://www.w3.org/2000/svg">
<path d="M18.4761 0.448242C17.7273 0.448242 17.0169 0.778097 16.5625 1.35534C13.3177 5.46584 11.3593 10.3249 10.4697 15.1522C9.6953 19.3768 10.0601 24.7497 11.5065 29.6975C11.8073 30.7251 12.3257 31.4419 16.4217 31.4419C27.4681 31.4419 32.3769 27.1728 32.3769 15.9324C32.3833 5.04083 27.6985 0.448242 18.4761 0.448242ZM18.1817 30.0464C17.5097 30.3826 16.6905 30.1225 16.3449 29.4755C16.3385 29.4628 16.3385 29.4564 16.3321 29.4437C14.1113 25.2571 13.3689 20.5059 14.2329 15.7865C15.0969 11.0607 17.4905 6.84235 21.0745 3.6453C21.0809 3.63895 21.0937 3.62627 21.1001 3.61992C21.6633 3.13148 22.5273 3.17589 23.0265 3.72142C23.5321 4.26694 23.4809 5.10427 22.9177 5.58636C22.9113 5.59271 22.9049 5.59905 22.8921 5.60539C19.8585 8.32669 17.6889 11.9932 16.9081 16.2432C16.1337 20.4806 16.8697 24.6355 18.7385 28.2004L18.7321 28.2068C18.7449 28.2258 18.7577 28.2448 18.7641 28.2639C19.1161 28.9172 18.8473 29.7165 18.1817 30.0464ZM26.4889 10.217C26.4761 10.2297 26.4569 10.236 26.4377 10.2487C24.2169 11.9868 22.6105 14.3719 22.0537 17.1503C21.4905 19.9414 22.0729 22.6754 23.4937 24.9907L23.4809 24.997C23.4937 25.0161 23.5065 25.0288 23.5193 25.0478C23.7497 25.4474 23.5769 25.9359 23.1225 26.1388C22.6681 26.3418 22.1177 26.1896 21.8809 25.79C21.8745 25.7773 21.8681 25.7646 21.8617 25.7519C20.2489 23.1258 19.5961 20.0302 20.2297 16.8712C20.8633 13.7185 22.6873 11.0099 25.2217 9.03715C25.2409 9.02446 25.2537 9.00543 25.2729 8.99275C25.6569 8.70095 26.2457 8.73267 26.5785 9.07521C26.9177 9.40507 26.8729 9.91888 26.4889 10.217ZM5.2985 27.7501C5.4073 28.2956 4.7289 28.6698 4.3065 28.2892C1.8937 26.1262 0.383301 23.3795 0.383301 15.9387C0.383301 6.37294 4.1721 2.28782 9.3305 0.898621C9.8425 0.759067 10.2649 1.3046 9.9961 1.74863C7.6537 5.57368 6.0217 9.82373 5.2089 14.2514C4.3897 18.7361 4.4217 23.3287 5.2985 27.7501Z" fill="url(#paint0_linear_317_1240)"/>
<defs>
<linearGradient id="paint0_linear_317_1240" x1="16.3833" y1="0.448241" x2="16.3833" y2="31.4463" gradientUnits="userSpaceOnUse">
<stop stop-color="#E84824"/>
<stop offset="0.9995" stop-color="#E84824"/>
</linearGradient>
</defs>
</svg>
