<svg width="1443" height="278" viewBox="0 0 1443 278" fill="none" xmlns="http://www.w3.org/2000/svg">
<g clip-path="url(#clip0_214_3416)">
<path d="M414.25 124.669L492.826 124.669V38.1049L414.25 38.1049V124.669Z" fill="white" fill-opacity="0.2"/>
<path d="M1166.19 4.55859H1072.71V107.549H1166.19V4.55859Z" fill="white" fill-opacity="0.2"/>
<path d="M1119.46 91.5812C1137.26 91.5812 1151.7 75.6781 1151.7 56.0606C1151.7 36.4431 1137.26 20.54 1119.46 20.54C1101.65 20.54 1087.21 36.4431 1087.21 56.0606C1087.21 75.6781 1101.65 91.5812 1119.46 91.5812Z" fill="#EEE7DB" fill-opacity="0.2"/>
<path d="M703.062 41.6495C685.552 22.3605 661.383 10.4092 634.64 10.4092C581.192 10.4092 537.873 58.1451 537.873 117.013V305.566H731.407V117.026C731.407 87.5789 720.558 60.9384 703.049 41.6495H703.062ZM634.64 263.014C591.422 263.014 556.404 224.436 556.404 176.825C556.404 129.214 591.422 90.6362 634.64 90.6362C677.857 90.6362 712.876 129.242 712.876 176.825C712.876 224.408 677.857 263.014 634.64 263.014Z" fill="white" fill-opacity="0.2"/>
<path d="M1006.37 283.664V182.856L751.728 182.856V283.664H1006.37Z" fill="#EEE7DB" fill-opacity="0.2"/>
<path d="M165.262 81.3808C169.644 81.3808 173.197 77.4672 173.197 72.6396C173.197 67.812 169.644 63.8984 165.262 63.8984C160.88 63.8984 157.328 67.812 157.328 72.6396C157.328 77.4672 160.88 81.3808 165.262 81.3808Z" fill="#EEE7DB" fill-opacity="0.2"/>
<path d="M189.545 81.3808C193.928 81.3808 197.48 77.4672 197.48 72.6396C197.48 67.812 193.928 63.8984 189.545 63.8984C185.163 63.8984 181.611 67.812 181.611 72.6396C181.611 77.4672 185.163 81.3808 189.545 81.3808Z" fill="#EEE7DB" fill-opacity="0.2"/>
<path d="M213.841 81.3808C218.223 81.3808 221.775 77.4672 221.775 72.6396C221.775 67.812 218.223 63.8984 213.841 63.8984C209.459 63.8984 205.906 67.812 205.906 72.6396C205.906 77.4672 209.459 81.3808 213.841 81.3808Z" fill="#EEE7DB" fill-opacity="0.2"/>
<path d="M238.124 81.3808C242.506 81.3808 246.059 77.4672 246.059 72.6396C246.059 67.812 242.506 63.8984 238.124 63.8984C233.742 63.8984 230.189 67.812 230.189 72.6396C230.189 77.4672 233.742 81.3808 238.124 81.3808Z" fill="#EEE7DB" fill-opacity="0.2"/>
<path d="M811.509 146.974C819.925 146.974 826.747 139.458 826.747 130.186C826.747 120.915 819.925 113.399 811.509 113.399C803.093 113.399 796.271 120.915 796.271 130.186C796.271 139.458 803.093 146.974 811.509 146.974Z" fill="#EEE7DB" fill-opacity="0.2"/>
<path d="M858.183 146.974C866.599 146.974 873.422 139.458 873.422 130.186C873.422 120.915 866.599 113.399 858.183 113.399C849.767 113.399 842.945 120.915 842.945 130.186C842.945 139.458 849.767 146.974 858.183 146.974Z" fill="#EEE7DB" fill-opacity="0.2"/>
<path d="M904.858 146.974C913.274 146.974 920.096 139.458 920.096 130.186C920.096 120.915 913.274 113.399 904.858 113.399C896.442 113.399 889.619 120.915 889.619 130.186C889.619 139.458 896.442 146.974 904.858 146.974Z" fill="#EEE7DB" fill-opacity="0.2"/>
<path d="M951.544 146.974C959.96 146.974 966.783 139.458 966.783 130.186C966.783 120.915 959.96 113.399 951.544 113.399C943.128 113.399 936.306 120.915 936.306 130.186C936.306 139.458 943.128 146.974 951.544 146.974Z" fill="#EEE7DB" fill-opacity="0.2"/>
<path d="M1403.72 164.331C1388.96 138.858 1363.08 121.973 1333.65 121.973C1287.82 121.973 1250.67 162.9 1250.67 213.387C1250.67 245.809 1266 274.311 1289.12 290.571C1301.99 299.576 1317.29 304.801 1333.67 304.801C1379.51 304.801 1416.65 263.875 1416.65 213.387C1416.65 195.321 1411.9 178.492 1403.73 164.317L1403.72 164.331ZM1333.65 298.367C1318.89 298.367 1305.14 293.795 1293.4 285.86C1271.3 270.907 1256.53 244.016 1256.53 213.401C1256.53 166.527 1291.12 128.435 1333.65 128.435C1361.44 128.435 1385.85 144.722 1399.4 169.098C1406.63 182.022 1410.78 197.183 1410.78 213.415C1410.78 260.248 1376.17 298.381 1333.65 298.381V298.367Z" fill="#EEE7DB" fill-opacity="0.2"/>
<path d="M1397.63 171.016C1384.6 147.085 1360.84 131.104 1333.64 131.104C1292.39 131.104 1258.94 167.958 1258.94 213.401C1258.94 243.363 1273.46 269.545 1295.17 283.9C1306.39 291.391 1319.55 295.671 1333.64 295.671C1374.89 295.671 1408.32 258.844 1408.32 213.401C1408.32 197.92 1404.43 183.412 1397.63 171.016ZM1333.64 289.209C1321.2 289.209 1309.52 285.554 1299.46 279.161C1278.77 266.084 1264.79 241.501 1264.79 213.387C1264.79 171.571 1295.68 137.538 1333.64 137.538C1359.16 137.538 1381.5 152.936 1393.35 175.727C1399.15 186.816 1402.47 199.685 1402.47 213.387C1402.47 255.203 1371.6 289.209 1333.64 289.209Z" fill="#EEE7DB" fill-opacity="0.2"/>
<path d="M1391.57 177.714C1380.24 155.368 1358.54 140.262 1333.64 140.262C1296.98 140.262 1267.25 173.017 1267.25 213.401C1267.25 240.806 1280.95 264.695 1301.22 277.244C1310.8 283.164 1321.88 286.541 1333.65 286.541C1370.31 286.541 1400.04 253.786 1400.04 213.401C1400.04 200.449 1396.97 188.262 1391.57 177.714ZM1333.64 280.107C1323.5 280.107 1313.95 277.341 1305.56 272.463C1286.3 261.318 1273.1 239.027 1273.1 213.415C1273.1 176.658 1300.28 146.724 1333.64 146.724C1356.9 146.724 1377.12 161.26 1387.24 182.481C1391.67 191.722 1394.18 202.27 1394.18 213.415C1394.18 250.173 1367.01 280.107 1333.64 280.107Z" fill="#EEE7DB" fill-opacity="0.2"/>
<path d="M1385.45 184.454C1375.87 163.65 1356.26 149.419 1333.65 149.419C1301.57 149.419 1275.58 178.075 1275.58 213.401C1275.58 238.304 1288.49 259.914 1307.38 270.462C1315.25 274.895 1324.18 277.382 1333.65 277.382C1365.73 277.382 1391.74 248.727 1391.74 213.401C1391.74 202.992 1389.47 193.167 1385.46 184.454H1385.45ZM1333.65 270.934C1325.83 270.934 1318.44 269.03 1311.78 265.612C1293.87 256.523 1281.43 236.512 1281.43 213.387C1281.43 181.646 1304.84 155.854 1333.65 155.854C1354.64 155.854 1372.8 169.556 1381.06 189.29C1384.16 196.627 1385.89 204.771 1385.89 213.387C1385.89 245.128 1362.48 270.92 1333.67 270.92L1333.65 270.934Z" fill="#EEE7DB" fill-opacity="0.2"/>
<path d="M1379.24 191.291C1371.52 172.002 1354.01 158.536 1333.65 158.536C1306.17 158.536 1283.85 183.078 1283.85 213.401C1283.85 235.845 1296.07 255.134 1313.61 263.597C1319.73 266.599 1326.53 268.266 1333.65 268.266C1361.14 268.266 1383.46 243.683 1383.46 213.401C1383.46 205.522 1381.94 198.031 1379.24 191.291ZM1333.65 261.79C1328.18 261.79 1322.94 260.692 1318.11 258.636C1301.52 251.743 1289.7 234.052 1289.7 213.401C1289.7 186.719 1309.42 164.984 1333.65 164.984C1352.4 164.984 1368.46 178.006 1374.74 196.252C1376.57 201.575 1377.6 207.37 1377.6 213.401C1377.6 240.083 1357.89 261.79 1333.65 261.79Z" fill="#EEE7DB" fill-opacity="0.2"/>
<path d="M1372.85 198.337C1367.18 180.479 1351.78 167.694 1333.65 167.694C1310.72 167.694 1292.16 188.136 1292.16 213.401C1292.16 233.371 1303.79 250.339 1320 256.579C1324.27 258.218 1328.89 259.108 1333.65 259.108C1356.56 259.108 1375.14 238.624 1375.14 213.401C1375.14 208.106 1374.34 203.062 1372.85 198.337ZM1333.65 252.66C1330.58 252.66 1327.56 252.215 1324.7 251.381C1309.37 247.018 1298.02 231.648 1298.02 213.401C1298.02 191.736 1314.01 174.142 1333.65 174.142C1350.22 174.142 1364.17 186.621 1368.13 203.534C1368.89 206.689 1369.29 210.01 1369.29 213.401C1369.29 235.038 1353.29 252.66 1333.65 252.66Z" fill="#EEE7DB" fill-opacity="0.2"/>
<path d="M1366.1 205.758C1362.92 189.207 1349.61 176.811 1333.64 176.811C1315.3 176.811 1300.43 193.181 1300.43 213.401C1300.43 230.967 1311.68 245.642 1326.7 249.158C1328.95 249.7 1331.26 249.964 1333.64 249.964C1351.98 249.964 1366.82 233.593 1366.82 213.415C1366.82 210.802 1366.58 208.245 1366.09 205.772L1366.1 205.758ZM1333.64 243.502C1333.05 243.502 1332.46 243.474 1331.89 243.446C1317.62 242.432 1306.32 229.355 1306.32 213.401C1306.32 197.447 1318.57 183.259 1333.64 183.259C1348.72 183.259 1359.99 195.738 1360.91 211.469C1360.94 212.095 1360.96 212.748 1360.96 213.401C1360.96 230.008 1348.72 243.502 1333.64 243.502Z" fill="#EEE7DB" fill-opacity="0.2"/>
<path d="M1333.65 185.969C1319.89 185.969 1308.75 198.24 1308.75 213.401C1308.75 228.563 1319.89 240.834 1333.65 240.834H1334.27C1347.54 240.473 1358.23 228.702 1358.55 214.082V213.401C1358.55 198.24 1347.42 185.969 1333.65 185.969ZM1342.16 232.148C1339.62 233.58 1336.71 234.372 1333.65 234.372C1323.16 234.372 1314.61 224.95 1314.61 213.387C1314.61 201.825 1323.16 192.403 1333.65 192.403C1344.15 192.403 1352.7 201.825 1352.7 213.387C1352.7 216.75 1351.97 219.933 1350.68 222.754C1348.85 226.826 1345.85 230.119 1342.16 232.148Z" fill="#EEE7DB" fill-opacity="0.2"/>
<path d="M1333.65 195.126C1324.48 195.126 1317.07 203.298 1317.07 213.401C1317.07 223.504 1324.48 231.675 1333.65 231.675C1342.82 231.675 1350.24 223.504 1350.24 213.401C1350.24 203.298 1342.82 195.126 1333.65 195.126ZM1333.65 225.227C1327.71 225.227 1322.92 219.905 1322.92 213.401C1322.92 206.897 1327.72 201.575 1333.65 201.575C1339.58 201.575 1344.39 206.869 1344.39 213.401C1344.39 219.932 1339.58 225.227 1333.65 225.227Z" fill="#EEE7DB" fill-opacity="0.2"/>
<path d="M1333.64 222.545C1338.23 222.545 1341.94 218.451 1341.94 213.401C1341.94 208.351 1338.23 204.257 1333.64 204.257C1329.06 204.257 1325.34 208.351 1325.34 213.401C1325.34 218.451 1329.06 222.545 1333.64 222.545Z" fill="#EEE7DB" fill-opacity="0.2"/>
<path d="M149.885 15.7871L-28.1704 211.942V15.7871H149.885Z" fill="white" fill-opacity="0.2"/>
<path d="M492.839 124.656L414.262 38.0918H492.839V124.656Z" fill="white" fill-opacity="0.2"/>
<path d="M1163.77 195.6H1062.31L1113.04 139.706L1163.77 195.6Z" fill="white" fill-opacity="0.2"/>
<path d="M1277.9 305.706L1443.09 130.06V305.706H1277.9Z" fill="white" fill-opacity="0.2"/>
<path d="M-24.0962 304.843C-24.0962 238.319 24.8612 184.385 85.2474 184.385C145.634 184.385 194.591 238.319 194.591 304.843H-24.0962Z" fill="white" fill-opacity="0.2"/>
<path d="M1176.75 218.293C1176.75 257.065 1148.23 288.486 1113.04 288.486C1077.84 288.486 1049.32 257.065 1049.32 218.293H1176.75Z" fill="#EEE7DB" fill-opacity="0.2"/>
<path d="M110.918 306.399C111.511 202.603 188.321 118.346 282.679 118.346C377.036 118.346 453.847 202.603 454.439 306.399H467.483C466.89 194.501 384.39 103.977 282.679 103.977C180.967 103.977 98.4674 194.501 97.8745 306.399H110.918Z" fill="#EEE7DB" fill-opacity="0.2"/>
<path d="M129.399 306.399C129.991 213.832 198.514 138.705 282.679 138.705C366.844 138.705 435.366 213.818 435.959 306.399H449.003C448.41 205.744 374.185 124.335 282.679 124.335C191.172 124.335 116.948 205.744 116.355 306.399H129.399Z" fill="#EEE7DB" fill-opacity="0.2"/>
<path d="M147.891 306.399C148.484 225.047 208.706 159.064 282.691 159.064C356.676 159.064 416.898 225.047 417.491 306.399H430.535C429.942 216.986 363.992 144.708 282.704 144.708C201.415 144.708 135.453 216.986 134.873 306.399H147.917H147.891Z" fill="#EEE7DB" fill-opacity="0.2"/>
<path d="M166.372 306.399C166.965 236.275 218.899 179.437 282.679 179.437C346.458 179.437 398.405 236.289 398.986 306.399H412.029C411.436 228.229 353.762 165.067 282.679 165.067C211.596 165.067 153.909 228.243 153.329 306.399H166.372Z" fill="#EEE7DB" fill-opacity="0.2"/>
<path d="M184.852 306.4C185.445 247.504 229.092 199.796 282.678 199.796C336.265 199.796 379.925 247.504 380.505 306.4H393.548C392.956 239.486 343.557 185.427 282.678 185.427C221.8 185.427 172.401 239.486 171.809 306.4H184.852Z" fill="#EEE7DB" fill-opacity="0.2"/>
<path d="M203.333 306.399C203.925 258.733 239.272 220.155 282.679 220.155C326.085 220.155 361.432 258.733 362.024 306.399H375.068C374.488 250.728 333.351 205.786 282.679 205.786C232.006 205.786 190.882 250.728 190.289 306.399H203.333Z" fill="#EEE7DB" fill-opacity="0.2"/>
<path d="M221.813 306.399C222.393 269.962 249.464 240.514 282.679 240.514C315.893 240.514 342.951 269.962 343.544 306.399H356.588C356.007 261.971 323.146 226.145 282.679 226.145C242.211 226.145 209.362 261.971 208.77 306.399H221.813Z" fill="#EEE7DB" fill-opacity="0.2"/>
<path d="M240.332 306.399C240.912 281.19 259.67 260.873 282.679 260.873C305.688 260.873 324.446 281.19 325.026 306.399H338.07C337.489 273.227 312.929 246.518 282.679 246.518C252.429 246.518 227.868 273.227 227.288 306.399H240.332Z" fill="#EEE7DB" fill-opacity="0.2"/>
<path d="M258.812 306.399C259.392 292.419 269.862 281.246 282.679 281.246C295.495 281.246 305.978 292.433 306.546 306.399H319.589C319.009 284.47 302.724 266.876 282.679 266.876C262.634 266.876 246.349 284.47 245.769 306.399H258.812Z" fill="#EEE7DB" fill-opacity="0.2"/>
<path d="M805.946 96.0558C806.211 49.237 840.863 11.2289 883.425 11.2289C925.987 11.2289 960.639 49.237 960.904 96.0558H966.782C966.517 45.5821 929.304 4.75293 883.425 4.75293C837.545 4.75293 800.332 45.5821 800.067 96.0558H805.946Z" fill="white" fill-opacity="0.2"/>
<path d="M814.284 96.056C814.549 54.2957 845.455 20.4149 883.425 20.4149C921.395 20.4149 952.301 54.2957 952.566 96.056H958.444C958.179 50.6547 924.7 13.939 883.425 13.939C842.15 13.939 808.671 50.6547 808.406 96.056H814.284Z" fill="white" fill-opacity="0.2"/>
<path d="M822.623 96.0556C822.887 59.3677 850.059 29.6005 883.425 29.6005C916.791 29.6005 943.963 59.3677 944.227 96.0556H950.106C949.841 55.7267 920.096 23.1245 883.425 23.1245C846.754 23.1245 817.009 55.7267 816.744 96.0556H822.623Z" fill="white" fill-opacity="0.2"/>
<path d="M830.96 96.0558C831.225 64.4264 854.651 38.7865 883.425 38.7865C912.199 38.7865 935.624 64.4264 935.889 96.0558H941.767C941.502 60.7993 915.491 32.3105 883.425 32.3105C851.358 32.3105 825.347 60.7993 825.082 96.0558H830.96Z" fill="white" fill-opacity="0.2"/>
<path d="M839.286 96.0557C839.551 69.4986 859.242 47.9723 883.412 47.9723C907.582 47.9723 927.273 69.4986 927.538 96.0557H933.416C933.152 65.8716 910.874 41.4824 883.412 41.4824C855.95 41.4824 833.673 65.8577 833.408 96.0557H839.286Z" fill="white" fill-opacity="0.2"/>
<path d="M847.625 96.0559C847.89 74.5573 863.835 57.1583 883.412 57.1583C902.99 57.1583 918.935 74.5573 919.2 96.0559H925.079C924.814 70.9441 906.258 50.6685 883.4 50.6685C860.542 50.6685 841.986 70.9441 841.721 96.0559H847.6H847.625Z" fill="white" fill-opacity="0.2"/>
<path d="M855.963 96.056C856.228 79.6159 868.439 66.3444 883.412 66.3444C898.398 66.3444 910.597 79.6298 910.862 96.056H916.74C916.475 76.0166 901.653 59.8545 883.4 59.8545C865.146 59.8545 850.324 76.0166 850.059 96.056H855.937H855.963Z" fill="white" fill-opacity="0.2"/>
<path d="M864.314 96.0557C864.579 84.688 873.031 75.516 883.412 75.516C893.794 75.516 902.259 84.6741 902.511 96.0557H908.389C908.124 81.0887 897.049 69.04 883.4 69.04C869.751 69.04 858.675 81.0887 858.41 96.0557H864.289H864.314Z" fill="white" fill-opacity="0.2"/>
<path d="M872.652 96.0558C872.917 89.7466 877.635 84.702 883.425 84.702C889.215 84.702 893.933 89.7466 894.198 96.0558H900.076C899.811 86.1612 892.469 78.2261 883.425 78.2261C874.38 78.2261 867.038 86.1612 866.773 96.0558H872.652Z" fill="white" fill-opacity="0.2"/>
<path d="M891.738 96.056C891.486 91.2338 887.865 87.4121 883.425 87.4121C878.985 87.4121 875.364 91.2338 875.112 96.056H891.738Z" fill="white" fill-opacity="0.2"/>
<path d="M753.419 168.181H1004.68" stroke="white" stroke-opacity="0.2" stroke-width="8.55" stroke-miterlimit="10"/>
<path d="M1443.09 -0.139648H1225.79V100.581H1443.09V-0.139648Z" fill="white" fill-opacity="0.2"/>
<path d="M1255.77 79.9628C1260.15 79.9628 1263.71 76.0493 1263.71 71.2216C1263.71 66.394 1260.15 62.4805 1255.77 62.4805C1251.39 62.4805 1247.84 66.394 1247.84 71.2216C1247.84 76.0493 1251.39 79.9628 1255.77 79.9628Z" fill="#EEE7DB" fill-opacity="0.2"/>
<path d="M1280.05 79.9628C1284.44 79.9628 1287.99 76.0493 1287.99 71.2216C1287.99 66.394 1284.44 62.4805 1280.05 62.4805C1275.67 62.4805 1272.12 66.394 1272.12 71.2216C1272.12 76.0493 1275.67 79.9628 1280.05 79.9628Z" fill="#EEE7DB" fill-opacity="0.2"/>
<path d="M1304.34 79.9628C1308.72 79.9628 1312.27 76.0493 1312.27 71.2216C1312.27 66.394 1308.72 62.4805 1304.34 62.4805C1299.95 62.4805 1296.4 66.394 1296.4 71.2216C1296.4 76.0493 1299.95 79.9628 1304.34 79.9628Z" fill="#EEE7DB" fill-opacity="0.2"/>
<path d="M1328.63 79.9628C1333.01 79.9628 1336.57 76.0493 1336.57 71.2216C1336.57 66.394 1333.01 62.4805 1328.63 62.4805C1324.25 62.4805 1320.7 66.394 1320.7 71.2216C1320.7 76.0493 1324.25 79.9628 1328.63 79.9628Z" fill="#EEE7DB" fill-opacity="0.2"/>
</g>
<defs>
<clipPath id="clip0_214_3416">
<rect width="1443" height="278" fill="white"/>
</clipPath>
</defs>
</svg>
