<svg width="10" height="14" viewBox="0 0 10 14" fill="none" xmlns="http://www.w3.org/2000/svg">
<path d="M0.717454 8.71755C0.647158 8.78727 0.591362 8.87022 0.553286 8.96161C0.515209 9.05301 0.495605 9.15104 0.495605 9.25005C0.495605 9.34905 0.515209 9.44708 0.553286 9.53848C0.591362 9.62987 0.647158 9.71282 0.717454 9.78255L4.46745 13.5325C4.53718 13.6028 4.62013 13.6586 4.71152 13.6967C4.80292 13.7348 4.90094 13.7544 4.99995 13.7544C5.09896 13.7544 5.19699 13.7348 5.28839 13.6967C5.37978 13.6586 5.46273 13.6028 5.53245 13.5325L9.28245 9.78255C9.35275 9.71282 9.40854 9.62987 9.44662 9.53848C9.4847 9.44708 9.5043 9.34905 9.5043 9.25005C9.5043 9.15104 9.4847 9.05301 9.44662 8.96161C9.40854 8.87022 9.35275 8.78727 9.28245 8.71755C9.21273 8.64725 9.12978 8.59145 9.03838 8.55338C8.94699 8.5153 8.84896 8.4957 8.74995 8.4957C8.65094 8.4957 8.55291 8.5153 8.46152 8.55338C8.37013 8.59145 8.28718 8.64725 8.21745 8.71755L4.99995 11.9425L1.78245 8.71755C1.71273 8.64725 1.62978 8.59145 1.53839 8.55338C1.44699 8.5153 1.34896 8.4957 1.24995 8.4957C1.15095 8.4957 1.05292 8.5153 0.961522 8.55338C0.870127 8.59145 0.787176 8.64725 0.717454 8.71755ZM4.46745 0.467546L0.717454 4.21755C0.647525 4.28747 0.592055 4.37049 0.55421 4.46186C0.516364 4.55322 0.496885 4.65115 0.496885 4.75005C0.496885 4.94977 0.576226 5.14132 0.717454 5.28255C0.787383 5.35248 0.870401 5.40795 0.961767 5.44579C1.05313 5.48364 1.15106 5.50311 1.24995 5.50311C1.44968 5.50311 1.64123 5.42377 1.78245 5.28255L4.99995 2.05755L8.21745 5.28255C8.28718 5.35284 8.37013 5.40864 8.46152 5.44671C8.55291 5.48479 8.65094 5.50439 8.74995 5.50439C8.84896 5.50439 8.94699 5.48479 9.03838 5.44671C9.12978 5.40864 9.21273 5.35284 9.28245 5.28255C9.35275 5.21282 9.40854 5.12987 9.44662 5.03848C9.4847 4.94708 9.5043 4.84905 9.5043 4.75005C9.5043 4.65104 9.4847 4.55301 9.44662 4.46161C9.40854 4.37022 9.35275 4.28727 9.28245 4.21755L5.53245 0.467546C5.46273 0.39725 5.37978 0.341454 5.28839 0.303377C5.19699 0.2653 5.09896 0.245697 4.99995 0.245697C4.90094 0.245697 4.80292 0.2653 4.71152 0.303377C4.62013 0.341454 4.53718 0.39725 4.46745 0.467546Z" fill="#21395D"/>
</svg>
