<svg width="1443" height="97" viewBox="0 0 1443 97" fill="none" xmlns="http://www.w3.org/2000/svg">
<g clip-path="url(#clip0_214_4226)">
<path d="M425.242 133.607H502.979V40.8375L425.242 40.8375V133.607Z" fill="#21395D" fill-opacity="0.07"/>
<path d="M1169.15 4.88477H1076.66V115.259H1169.15V4.88477Z" fill="#21395D" fill-opacity="0.07"/>
<path d="M1122.91 98.1464C1140.53 98.1464 1154.81 81.1032 1154.81 60.0793C1154.81 39.0554 1140.53 22.0122 1122.91 22.0122C1105.3 22.0122 1091.02 39.0554 1091.02 60.0793C1091.02 81.1032 1105.3 98.1464 1122.91 98.1464Z" fill="#21395D" fill-opacity="0.07"/>
<path d="M710.967 44.6353C693.645 23.9635 669.734 11.1553 643.277 11.1553C590.4 11.1553 547.544 62.3135 547.544 125.401V327.473H739.01V125.416C739.01 93.8574 728.277 65.3071 710.955 44.6353H710.967ZM643.277 281.87C600.521 281.87 565.877 240.526 565.877 189.502C565.877 138.478 600.521 97.1339 643.277 97.1339C686.033 97.1339 720.677 138.507 720.677 189.502C720.677 240.496 686.033 281.87 643.277 281.87Z" fill="#21395D" fill-opacity="0.07"/>
<path d="M178.915 87.2152C183.25 87.2152 186.765 83.0211 186.765 77.8473C186.765 72.6736 183.25 68.4795 178.915 68.4795C174.579 68.4795 171.065 72.6736 171.065 77.8473C171.065 83.0211 174.579 87.2152 178.915 87.2152Z" fill="#21395D" fill-opacity="0.07"/>
<path d="M202.939 87.2152C207.274 87.2152 210.788 83.0211 210.788 77.8473C210.788 72.6736 207.274 68.4795 202.939 68.4795C198.603 68.4795 195.089 72.6736 195.089 77.8473C195.089 83.0211 198.603 87.2152 202.939 87.2152Z" fill="#21395D" fill-opacity="0.07"/>
<path d="M226.974 87.2152C231.31 87.2152 234.824 83.0211 234.824 77.8473C234.824 72.6736 231.31 68.4795 226.974 68.4795C222.639 68.4795 219.125 72.6736 219.125 77.8473C219.125 83.0211 222.639 87.2152 226.974 87.2152Z" fill="#21395D" fill-opacity="0.07"/>
<path d="M250.998 87.2152C255.334 87.2152 258.848 83.0211 258.848 77.8473C258.848 72.6736 255.334 68.4795 250.998 68.4795C246.663 68.4795 243.148 72.6736 243.148 77.8473C243.148 83.0211 246.663 87.2152 250.998 87.2152Z" fill="#21395D" fill-opacity="0.07"/>
<path d="M163.702 16.9189L-12.4512 227.137V16.9189H163.702Z" fill="#21395D" fill-opacity="0.07"/>
<path d="M502.991 133.592L425.254 40.8223H502.991V133.592Z" fill="#21395D" fill-opacity="0.07"/>
<path d="M812.753 102.942C813.015 52.767 847.297 12.034 889.404 12.034C931.511 12.034 965.793 52.767 966.055 102.942H971.87C971.608 48.8501 934.793 5.09375 889.404 5.09375C844.015 5.09375 807.199 48.8501 806.937 102.942H812.753Z" fill="#21395D" fill-opacity="0.07"/>
<path d="M821.002 102.942C821.264 58.188 851.839 21.8782 889.404 21.8782C926.968 21.8782 957.544 58.188 957.806 102.942H963.621C963.359 54.2859 930.238 14.938 889.404 14.938C848.57 14.938 815.448 54.2859 815.186 102.942H821.002Z" fill="#21395D" fill-opacity="0.07"/>
<path d="M829.251 102.942C829.513 63.6243 856.395 31.723 889.404 31.723C922.413 31.723 949.295 63.6243 949.557 102.942H955.372C955.11 59.7223 925.683 24.7827 889.404 24.7827C853.125 24.7827 823.698 59.7223 823.436 102.942H829.251Z" fill="#21395D" fill-opacity="0.07"/>
<path d="M837.5 102.942C837.762 69.0452 860.937 41.5672 889.404 41.5672C917.87 41.5672 941.045 69.0452 941.307 102.942H947.123C946.861 65.1581 921.128 34.627 889.404 34.627C857.68 34.627 831.947 65.1581 831.685 102.942H837.5Z" fill="#21395D" fill-opacity="0.07"/>
<path d="M845.737 102.942C845.999 74.4813 865.48 51.4117 889.391 51.4117C913.303 51.4117 932.784 74.4813 933.046 102.942H938.862C938.599 70.5942 916.56 44.4565 889.391 44.4565C862.223 44.4565 840.183 70.5793 839.921 102.942H845.737Z" fill="#21395D" fill-opacity="0.07"/>
<path d="M853.986 102.942C854.248 79.9023 870.023 61.2559 889.391 61.2559C908.76 61.2559 924.535 79.9023 924.797 102.942H930.612C930.35 76.03 911.992 54.3008 889.379 54.3008C866.765 54.3008 848.408 76.03 848.146 102.942H853.961H853.986Z" fill="#21395D" fill-opacity="0.07"/>
<path d="M862.235 102.942C862.497 85.3237 874.578 71.1007 889.391 71.1007C904.217 71.1007 916.285 85.3386 916.547 102.942H922.363C922.101 81.4663 907.437 64.1455 889.379 64.1455C871.32 64.1455 856.657 81.4663 856.395 102.942H862.21H862.235Z" fill="#21395D" fill-opacity="0.07"/>
<path d="M870.497 102.942C870.759 90.7595 879.12 80.93 889.391 80.93C899.662 80.93 908.036 90.7446 908.286 102.942H914.101C913.839 86.9022 902.882 73.9897 889.379 73.9897C875.876 73.9897 864.918 86.9022 864.656 102.942H870.472H870.497Z" fill="#21395D" fill-opacity="0.07"/>
<path d="M878.746 102.942C879.008 96.181 883.675 90.7747 889.404 90.7747C895.132 90.7747 899.799 96.181 900.061 102.942H905.877C905.615 92.3385 898.352 83.8345 889.404 83.8345C880.456 83.8345 873.192 92.3385 872.93 102.942H878.746Z" fill="#21395D" fill-opacity="0.07"/>
<path d="M897.628 102.942C897.378 97.7744 893.797 93.6787 889.404 93.6787C885.011 93.6787 881.429 97.7744 881.18 102.942H897.628Z" fill="#21395D" fill-opacity="0.07"/>
<path d="M1443.09 -0.149902H1228.11V107.791H1443.09V-0.149902Z" fill="#21395D" fill-opacity="0.07"/>
<path d="M1257.77 85.6957C1262.11 85.6957 1265.62 81.5015 1265.62 76.3278C1265.62 71.1541 1262.11 66.96 1257.77 66.96C1253.44 66.96 1249.92 71.1541 1249.92 76.3278C1249.92 81.5015 1253.44 85.6957 1257.77 85.6957Z" fill="#21395D" fill-opacity="0.07"/>
<path d="M1281.8 85.6957C1286.13 85.6957 1289.64 81.5015 1289.64 76.3278C1289.64 71.1541 1286.13 66.96 1281.8 66.96C1277.46 66.96 1273.95 71.1541 1273.95 76.3278C1273.95 81.5015 1277.46 85.6957 1281.8 85.6957Z" fill="#21395D" fill-opacity="0.07"/>
<path d="M1305.82 85.6957C1310.15 85.6957 1313.67 81.5015 1313.67 76.3278C1313.67 71.1541 1310.15 66.96 1305.82 66.96C1301.48 66.96 1297.97 71.1541 1297.97 76.3278C1297.97 81.5015 1301.48 85.6957 1305.82 85.6957Z" fill="#21395D" fill-opacity="0.07"/>
<path d="M1329.86 85.6957C1334.19 85.6957 1337.7 81.5015 1337.7 76.3278C1337.7 71.1541 1334.19 66.96 1329.86 66.96C1325.52 66.96 1322.01 71.1541 1322.01 76.3278C1322.01 81.5015 1325.52 85.6957 1329.86 85.6957Z" fill="#21395D" fill-opacity="0.07"/>
</g>
<defs>
<clipPath id="clip0_214_4226">
<rect width="1443" height="298.345" fill="white"/>
</clipPath>
</defs>
</svg>
