<svg width="1435" height="184" viewBox="0 0 1435 184" fill="none" xmlns="http://www.w3.org/2000/svg">
<g clip-path="url(#clip0_214_4014)">
<path d="M346.313 186.798L476.747 186.798V57.0951L346.313 57.0951V186.798Z" fill="#21395D" fill-opacity="0.25"/>
<path d="M825.73 62.4051C796.665 33.5035 756.544 15.5962 712.152 15.5962C623.43 15.5962 551.523 87.1214 551.523 175.325V457.845H872.781V175.346C872.781 131.223 854.773 91.3068 825.709 62.4051H825.73ZM712.152 394.087C640.412 394.087 582.284 336.283 582.284 264.945C582.284 193.608 640.412 135.804 712.152 135.804C783.892 135.804 842.021 193.649 842.021 264.945C842.021 336.242 783.892 394.087 712.152 394.087Z" fill="#21395D" fill-opacity="0.25"/>
<path d="M13.6418 121.937C20.916 121.937 26.8129 116.073 26.8129 108.84C26.8129 101.606 20.916 95.7422 13.6418 95.7422C6.36757 95.7422 0.470703 101.606 0.470703 108.84C0.470703 116.073 6.36757 121.937 13.6418 121.937Z" fill="#EEE7DB" fill-opacity="0.2"/>
<path d="M53.9514 121.937C61.2256 121.937 67.1225 116.073 67.1225 108.84C67.1225 101.606 61.2256 95.7422 53.9514 95.7422C46.6771 95.7422 40.7803 101.606 40.7803 108.84C40.7803 116.073 46.6771 121.937 53.9514 121.937Z" fill="#EEE7DB" fill-opacity="0.2"/>
<path d="M1005.75 220.218C1019.72 220.218 1031.04 208.957 1031.04 195.065C1031.04 181.173 1019.72 169.911 1005.75 169.911C991.779 169.911 980.454 181.173 980.454 195.065C980.454 208.957 991.779 220.218 1005.75 220.218Z" fill="#EEE7DB" fill-opacity="0.2"/>
<path d="M1083.23 220.218C1097.2 220.218 1108.52 208.957 1108.52 195.065C1108.52 181.173 1097.2 169.911 1083.23 169.911C1069.26 169.911 1057.93 181.173 1057.93 195.065C1057.93 208.957 1069.26 220.218 1083.23 220.218Z" fill="#EEE7DB" fill-opacity="0.2"/>
<path d="M1160.7 220.219C1174.67 220.219 1186 208.957 1186 195.065C1186 181.173 1174.67 169.912 1160.7 169.912C1146.73 169.912 1135.41 181.173 1135.41 195.065C1135.41 208.957 1146.73 220.219 1160.7 220.219Z" fill="#EEE7DB" fill-opacity="0.2"/>
<path d="M1238.2 220.218C1252.17 220.218 1263.5 208.957 1263.5 195.065C1263.5 181.173 1252.17 169.911 1238.2 169.911C1224.23 169.911 1212.91 181.173 1212.91 195.065C1212.91 208.957 1224.23 220.218 1238.2 220.218Z" fill="#EEE7DB" fill-opacity="0.2"/>
<path d="M476.768 186.778L346.334 57.0747H476.768V186.778Z" fill="#21395D" fill-opacity="0.25"/>
<path d="M-157.206 459.094C-156.222 303.571 -28.7191 177.324 127.911 177.324C284.54 177.324 412.043 303.571 413.027 459.094H434.679C433.695 291.432 296.748 155.794 127.911 155.794C-40.927 155.794 -177.873 291.432 -178.857 459.094H-157.206Z" fill="#EEE7DB" fill-opacity="0.2"/>
<path d="M996.514 143.925C996.954 73.7744 1054.48 16.8249 1125.13 16.8249C1195.78 16.8249 1253.3 73.7744 1253.74 143.925H1263.5C1263.06 68.2981 1201.28 7.12158 1125.13 7.12158C1048.97 7.12158 987.196 68.2981 986.756 143.925H996.514Z" fill="#21395D" fill-opacity="0.25"/>
<path d="M1010.36 143.925C1010.79 81.3538 1062.1 30.5885 1125.13 30.5885C1188.15 30.5885 1239.46 81.3538 1239.9 143.925H1249.66C1249.22 75.8983 1193.64 20.8853 1125.13 20.8853C1056.61 20.8853 1001.04 75.8983 1000.6 143.925H1010.36Z" fill="#21395D" fill-opacity="0.25"/>
<path d="M1024.2 143.925C1024.64 88.954 1069.74 44.3522 1125.13 44.3522C1180.51 44.3522 1225.62 88.954 1226.06 143.925H1235.81C1235.37 83.4985 1186 34.6489 1125.13 34.6489C1064.25 34.6489 1014.88 83.4985 1014.44 143.925H1024.2Z" fill="#21395D" fill-opacity="0.25"/>
<path d="M1038.04 143.925C1038.48 96.5334 1077.36 58.1159 1125.13 58.1159C1172.89 58.1159 1211.78 96.5334 1212.21 143.925H1221.97C1221.53 91.0987 1178.36 48.4126 1125.13 48.4126C1071.9 48.4126 1028.72 91.0987 1028.28 143.925H1038.04Z" fill="#21395D" fill-opacity="0.25"/>
<path d="M1051.86 143.925C1052.3 104.133 1084.98 71.8794 1125.11 71.8794C1165.23 71.8794 1197.91 104.133 1198.35 143.925H1208.11C1207.67 98.6988 1170.69 62.1553 1125.11 62.1553C1079.52 62.1553 1042.54 98.6779 1042.1 143.925H1051.86Z" fill="#21395D" fill-opacity="0.25"/>
<path d="M1065.7 143.925C1066.14 111.713 1092.61 85.6431 1125.11 85.6431C1157.6 85.6431 1184.07 111.713 1184.51 143.925H1194.27C1193.83 106.299 1163.03 75.9189 1125.08 75.9189C1087.14 75.9189 1056.34 106.299 1055.9 143.925H1065.66H1065.7Z" fill="#21395D" fill-opacity="0.25"/>
<path d="M1079.54 143.925C1079.98 119.292 1100.25 99.4067 1125.11 99.4067C1149.98 99.4067 1170.23 119.313 1170.67 143.925H1180.43C1179.99 113.899 1155.38 89.6826 1125.08 89.6826C1094.78 89.6826 1070.18 113.899 1069.74 143.925H1079.5H1079.54Z" fill="#21395D" fill-opacity="0.25"/>
<path d="M1093.4 143.925C1093.84 126.892 1107.87 113.15 1125.11 113.15C1142.34 113.15 1156.39 126.872 1156.81 143.925H1166.57C1166.13 121.499 1147.74 103.446 1125.08 103.446C1102.43 103.446 1084.04 121.499 1083.6 143.925H1093.36H1093.4Z" fill="#21395D" fill-opacity="0.25"/>
<path d="M1107.24 143.925C1107.68 134.472 1115.52 126.913 1125.13 126.913C1134.74 126.913 1142.57 134.472 1143.01 143.925H1152.77C1152.33 129.1 1140.14 117.21 1125.13 117.21C1110.11 117.21 1097.93 129.1 1097.49 143.925H1107.24Z" fill="#21395D" fill-opacity="0.25"/>
<path d="M1138.93 143.925C1138.51 136.7 1132.5 130.974 1125.13 130.974C1117.76 130.974 1111.75 136.7 1111.33 143.925H1138.93Z" fill="#21395D" fill-opacity="0.25"/>
</g>
<defs>
<clipPath id="clip0_214_4014">
<rect width="1439" height="417" fill="white"/>
</clipPath>
</defs>
</svg>
