<svg width="66" height="66" viewBox="0 0 66 66" fill="none" xmlns="http://www.w3.org/2000/svg">
<path d="M33 54.3426C40.817 54.3432 48.009 50.0702 51.7465 43.2046" stroke="#21395D" stroke-width="2" stroke-linecap="round" stroke-linejoin="round"/>
<path d="M54.3422 32.9999C54.3422 21.213 44.787 11.6577 33 11.6577" stroke="#21395D" stroke-width="2" stroke-linecap="round" stroke-linejoin="round"/>
<path d="M32.9999 11.6577C25.1829 11.6571 17.9909 15.93 14.2534 22.7957" stroke="#21395D" stroke-width="2" stroke-linecap="round" stroke-linejoin="round"/>
<path d="M11.6577 33C11.6577 44.787 21.213 54.3422 32.9999 54.3422" stroke="#21395D" stroke-width="2" stroke-linecap="round" stroke-linejoin="round"/>
<path d="M14.2534 22.7961C18.9187 14.2227 28.8056 9.90668 38.2645 12.3144C47.7234 14.722 54.3436 23.2398 54.3421 33.0003" stroke="#21395D" stroke-width="2" stroke-linecap="round" stroke-linejoin="round"/>
<path d="M11.6577 33C11.6562 42.7605 18.2764 51.2783 27.7353 53.686C37.1942 56.0936 47.0812 51.7776 51.7464 43.2042" stroke="#21395D" stroke-width="2" stroke-linecap="round" stroke-linejoin="round"/>
<path d="M22.4545 22.7961H13.0239V13.3628" stroke="#21395D" stroke-width="2" stroke-linecap="round" stroke-linejoin="round"/>
<path d="M43.5459 43.2046H52.9765V52.6379" stroke="#21395D" stroke-width="2" stroke-linecap="round" stroke-linejoin="round"/>
</svg>
