<svg width="64" height="65" viewBox="0 0 64 65" fill="none" xmlns="http://www.w3.org/2000/svg">
<path d="M42.6714 49.8407H21.7827" stroke="#21395D" stroke-width="2" stroke-linecap="round" stroke-linejoin="round"/>
<path d="M50.6639 49.8409H56.0101C57.4835 49.8409 58.6779 48.6465 58.6779 47.1731V30.8606C58.6779 30.1822 58.5484 29.51 58.2964 28.8801L54.6823 19.8472C53.8719 17.8217 51.9101 16.4937 49.7285 16.4937H40.0034" stroke="#21395D" stroke-width="2" stroke-linecap="round" stroke-linejoin="round"/>
<path d="M58.6779 35.1677H49.3407C48.604 35.1677 48.0068 34.5705 48.0068 33.8338V24.4966H56.5437" stroke="#21395D" stroke-width="2" stroke-linecap="round" stroke-linejoin="round"/>
<path d="M49.4919 47.0221C50.6364 48.1665 50.9789 49.8877 50.3596 51.383C49.7403 52.8784 48.2812 53.8534 46.6626 53.8535C45.0441 53.8536 43.5849 52.8787 42.9654 51.3834C42.346 49.8881 42.6883 48.1669 43.8327 47.0224L43.833 47.0221C44.5834 46.2717 45.6012 45.8501 46.6624 45.8501C47.7237 45.8501 48.7415 46.2717 49.4919 47.0221V47.0221" stroke="#21395D" stroke-width="2" stroke-linecap="round" stroke-linejoin="round"/>
<path d="M20.1462 47.0219C21.2907 48.1663 21.6332 49.8875 21.0139 51.3828C20.3946 52.8782 18.9355 53.8532 17.3169 53.8533C15.6984 53.8534 14.2392 52.8785 13.6197 51.3832C13.0003 49.8879 13.3426 48.1667 14.487 47.0222L14.4878 47.0214C15.2381 46.271 16.2559 45.8495 17.3171 45.8496C18.3782 45.8497 19.3959 46.2714 20.1461 47.0219V47.0219" stroke="#21395D" stroke-width="2" stroke-linecap="round" stroke-linejoin="round"/>
<path d="M13.3256 49.8405H7.99004C6.51667 49.8405 5.32227 48.6461 5.32227 47.1727V13.8255C5.32227 12.3521 6.51667 11.1577 7.99004 11.1577H37.3356C38.809 11.1577 40.0034 12.3521 40.0034 13.8255V37.8355" stroke="#21395D" stroke-width="2" stroke-linecap="round" stroke-linejoin="round"/>
<path d="M40.0034 37.8358H5.32227" stroke="#21395D" stroke-width="2" stroke-linecap="round" stroke-linejoin="round"/>
</svg>
