<svg width="25" height="24" viewBox="0 0 25 24" fill="none" xmlns="http://www.w3.org/2000/svg">
<path d="M4.37289 17.0194L3.16933 9.83981C2.98735 8.75428 2.89637 8.21152 3.18773 7.85576C3.4791 7.5 4.01461 7.5 5.08564 7.5H19.9144C20.9854 7.5 21.5209 7.5 21.8123 7.85576C22.1036 8.21152 22.0126 8.75428 21.8307 9.83981L20.6271 17.0194C20.2282 19.3991 20.0287 20.5889 19.2143 21.2945C18.4 22 17.226 22 14.8782 22H10.1218C7.77396 22 6.60003 22 5.78565 21.2945C4.97127 20.5889 4.77181 19.3991 4.37289 17.0194Z" stroke="black" stroke-width="1.5"/>
<path d="M18 7.5C18 4.46243 15.5376 2 12.5 2C9.46243 2 7 4.46243 7 7.5" stroke="black" stroke-width="1.5"/>
</svg>
