<svg width="23" height="24" viewBox="0 0 23 24" fill="none" xmlns="http://www.w3.org/2000/svg">
<path d="M21.8967 5.49934L5.42336 2.56091C4.70146 2.43107 4.00015 2.93614 3.87494 3.65415L2.81398 9.74062H1.29839C0.582419 9.74062 0 10.3232 0 11.039V20.1611C0 20.8769 0.582419 21.4595 1.29839 21.4595H18.1008C18.8168 21.4595 19.3992 20.8769 19.3992 20.1611V16.9535C19.8805 17.0394 20.3452 17.1407 20.7901 16.8745C21.124 16.6747 21.3635 16.3303 21.4304 15.9465L22.9796 7.05889C23.107 6.3279 22.6212 5.62826 21.8967 5.49934ZM4.60594 3.78158C4.66158 3.46273 4.97097 3.23366 5.29315 3.29116L21.7665 6.22959C22.0898 6.28728 22.3061 6.60205 22.2488 6.93128L21.9932 8.39846L4.3496 5.25154L4.60594 3.78158ZM18.6573 20.1611C18.6573 20.4679 18.4076 20.7176 18.1008 20.7176H1.29839C0.991597 20.7176 0.741935 20.4679 0.741935 20.1611V11.039C0.741935 10.7322 0.991597 10.4826 1.29839 10.4826H18.1008C18.4076 10.4826 18.6573 10.7322 18.6573 11.039V20.1611ZM20.6996 15.8191C20.5843 16.4789 19.8516 16.2806 19.3992 16.1999V11.039C19.3992 10.3232 18.8168 9.74062 18.1008 9.74062H3.56723L4.22217 5.98234L5.29686 6.17395L21.8656 9.12926L20.6996 15.8191Z" fill="black"/>
<path d="M8.73987 19.2344H6.60681C6.40203 19.2344 6.23584 19.0682 6.23584 18.8635C6.23584 18.6587 6.40203 18.4925 6.60681 18.4925H8.73987C8.94465 18.4925 9.11084 18.6587 9.11084 18.8635C9.11084 19.0682 8.94483 19.2344 8.73987 19.2344Z" fill="black"/>
<path d="M4.68714 19.2344H2.55407C2.3493 19.2344 2.18311 19.0682 2.18311 18.8635C2.18311 18.6587 2.3493 18.4925 2.55407 18.4925H4.68714C4.89191 18.4925 5.05811 18.6587 5.05811 18.8635C5.05811 19.0682 4.89191 19.2344 4.68714 19.2344Z" fill="black"/>
<path d="M12.7921 19.2344H10.6591C10.4543 19.2344 10.2881 19.0682 10.2881 18.8635C10.2881 18.6587 10.4543 18.4925 10.6591 18.4925H12.7921C12.9969 18.4925 13.1631 18.6587 13.1631 18.8635C13.1631 19.0682 12.9971 19.2344 12.7921 19.2344Z" fill="black"/>
<path d="M16.8449 19.2344H14.7118C14.507 19.2344 14.3408 19.0682 14.3408 18.8635C14.3408 18.6587 14.507 18.4925 14.7118 18.4925H16.8449C17.0496 18.4925 17.2158 18.6587 17.2158 18.8635C17.2158 19.0682 17.0496 19.2344 16.8449 19.2344Z" fill="black"/>
<path d="M5.64559 17.3098H2.95867C2.44729 17.3098 2.03125 16.8938 2.03125 16.3824V15.317C2.03125 14.8056 2.44729 14.3896 2.95867 14.3896H5.64559C6.15697 14.3896 6.57301 14.8056 6.57301 15.317V16.3824C6.57301 16.8936 6.15678 17.3098 5.64559 17.3098ZM2.95867 15.1313C2.85647 15.1313 2.77319 15.2144 2.77319 15.3168V16.3822C2.77319 16.4846 2.85647 16.5677 2.95867 16.5677H5.64559C5.74779 16.5677 5.83107 16.4846 5.83107 16.3822V15.3168C5.83107 15.2144 5.74779 15.1313 5.64559 15.1313H2.95867Z" fill="black"/>
</svg>
