<svg width="21" height="20" viewBox="0 0 21 20" fill="none" xmlns="http://www.w3.org/2000/svg">
<path d="M18.8332 9.99999V15C18.8332 16.8409 17.3408 18.3333 15.4998 18.3333H5.49984C3.65889 18.3333 2.1665 16.8409 2.1665 15V4.99999C2.1665 3.15904 3.65889 1.66666 5.49984 1.66666H10.4998M13.5718 3.35228C13.5718 3.35228 13.5718 4.54419 14.7637 5.73611C15.9556 6.92802 17.1475 6.92802 17.1475 6.92802M8.12873 13.3246L10.6318 12.9671C10.9928 12.9155 11.3274 12.7482 11.5853 12.4903L18.3395 5.73611C18.9977 5.07783 18.9977 4.01055 18.3395 3.35228L17.1476 2.16036C16.4893 1.50209 15.422 1.50209 14.7637 2.16036L8.00954 8.91454C7.75165 9.17244 7.58435 9.50702 7.53277 9.86808L7.1752 12.3711C7.09574 12.9273 7.57251 13.4041 8.12873 13.3246Z" stroke="white" stroke-width="1.5" stroke-linecap="round"/>
</svg>
