<svg width="23" height="23" viewBox="0 0 23 23" fill="none" xmlns="http://www.w3.org/2000/svg">
<mask id="mask0_802_2912" style="mask-type:luminance" maskUnits="userSpaceOnUse" x="0" y="0" width="23" height="23">
<path d="M0 0H23V23H0V0Z" fill="white"/>
</mask>
<g mask="url(#mask0_802_2912)">
<path d="M19.9716 4.34302C19.4102 4.90441 18.5 4.90441 17.9386 4.34302C17.3772 3.78163 17.3772 2.87147 17.9386 2.31008C18.5 1.74869 19.4102 1.74869 19.9716 2.31008C20.5329 2.87147 20.5329 3.78163 19.9716 4.34302Z" stroke="black" stroke-miterlimit="10" stroke-linecap="round" stroke-linejoin="round"/>
<path d="M5.0614 20.6899C4.50001 21.2513 3.58985 21.2513 3.02846 20.6899C2.46707 20.1285 2.46707 19.2183 3.02846 18.657C3.58985 18.0956 4.50001 18.0956 5.0614 18.657C5.62279 19.2183 5.62279 20.1285 5.0614 20.6899Z" stroke="black" stroke-miterlimit="10" stroke-linecap="round" stroke-linejoin="round"/>
<path d="M9.32227 22.3359C10.0268 22.4768 10.7555 22.5508 11.5016 22.5508C17.6047 22.5508 22.5523 17.6032 22.5523 11.5C22.5523 8.83573 21.6093 6.3918 20.0391 4.48339" stroke="black" stroke-miterlimit="10" stroke-linecap="round" stroke-linejoin="round"/>
<path d="M13.7003 0.668387C12.9892 0.524727 12.2534 0.449302 11.5 0.449302C5.39682 0.449302 0.449219 5.39691 0.449219 11.5001C0.449219 14.1644 1.39222 16.6083 2.96246 18.5167" stroke="black" stroke-miterlimit="10" stroke-linecap="round" stroke-linejoin="round"/>
<path d="M11.4988 14.7627C9.6969 14.7627 8.23613 13.302 8.23613 11.5C8.23613 9.69809 9.6969 8.23737 11.4988 8.23737C13.3007 8.23737 14.7615 9.69809 14.7615 11.5C14.7615 13.302 13.3007 14.7627 11.4988 14.7627ZM18.0051 10.0916C17.8339 9.29501 17.5205 8.55133 17.0923 7.88869L17.953 7.02794L15.9661 5.04253L15.1061 5.90255C14.4434 5.47431 13.6998 5.16089 12.9032 4.98979V3.77344H10.0944V4.98979C9.29782 5.16089 8.55418 5.47431 7.89154 5.90255L7.03151 5.04253L5.04466 7.02794L5.90536 7.88869C5.47712 8.55133 5.1637 9.29501 4.99255 10.0916H3.77301L3.77148 12.9004H4.99251C5.16366 13.6969 5.47708 14.4406 5.90532 15.1033L5.04134 15.9673L7.02675 17.9542L7.89145 17.0894C8.55414 17.5177 9.29782 17.8312 10.0944 18.0023V19.2266H12.9032V18.0023C13.6998 17.8312 14.4435 17.5177 15.1062 17.0894L15.9709 17.9542L17.9563 15.9673L17.0923 15.1033C17.5205 14.4406 17.834 13.6969 18.0051 12.9004H19.2261V10.0916H18.0051Z" stroke="black" stroke-miterlimit="10" stroke-linecap="round" stroke-linejoin="round"/>
</g>
</svg>
